<svg width="1920.0000000000002" height="1080" xmlns="http://www.w3.org/2000/svg">
 <!-- Created with Method Draw - http://github.com/duopixel/Method-Draw/ -->

 <g>
  <title>background</title>
  <rect x="-1" y="-1" width="1922" height="1082" id="canvas_background" fill="#fff"/>
  <g id="canvasGrid" display="none">
   <rect id="svg_9" width="100%" height="100%" x="0" y="0" stroke-width="0" fill="url(#gridpattern)"/>
  </g>
 </g>
 <g>
  <title>Layer 1</title>
  <rect fill="#83c1f7" stroke="null" stroke-width="1.5" stroke-opacity="null" x="-21.350815" y="-23.343331" width="1984.035282" height="1134.686845" id="svg_42"/>
  <ellipse fill="#e5e5e5" stroke-width="1.5" cx="-151.334802" cy="-28.000819" id="svg_43" rx="267.333857" ry="175.333677"/>
  <ellipse fill="#e5e5e5" stroke-width="1.5" cx="57.998942" cy="-73.334242" id="svg_44" rx="146.000286" ry="139.333606"/>
  <ellipse fill="#e5e5e5" stroke-width="1.5" cx="483.333109" cy="-36.000835" id="svg_45" rx="215.333755" ry="166.000325"/>
  <ellipse fill="#e5e5e5" stroke-width="1.5" cx="636.333426" cy="0.33258" id="svg_46" rx="239.333802" ry="169.333665"/>
  <ellipse fill="#e5e5e5" stroke-width="1.5" cx="294.666217" cy="90.332694" id="svg_47" rx="252.667162" ry="104.000204"/>
  <ellipse fill="#e5e5e5" stroke-width="1.5" cx="11.331893" cy="118.666156" id="svg_48" rx="126.000247" ry="77.333485"/>
  <path fill="#cccccc" stroke-width="1.5" stroke-opacity="null" d="m-171.096365,60.770936c12.88994,15.2386 40.91533,46.40804 70.76751,64.57915c29.85217,18.17109 71.02407,36.54998 112.64005,42.95769c41.61597,6.40772 92.72627,1.05465 120.53397,-4.96916c27.80771,-6.02381 65.02951,-20.10487 80.71013,-28.64501c15.68062,-8.54014 19.06038,-21.76126 10.81263,-39.29555c-8.24776,-17.5343 -22.17254,-16.42831 -35.93448,-10.74988c-13.76195,5.67843 -15.96052,6.7518 -34.70216,14.39973c-18.74162,7.64793 -30.33264,15.18719 -64.16366,17.77094c-33.83101,2.58376 -62.13664,-3.50336 -84.11996,-6.98247c-21.98331,-3.47911 -48.45656,-15.11007 -65.17983,-23.3781c-16.72328,-8.26802 -37.14752,-25.29932 -47.43137,-32.12045c-10.28387,-6.82112 -19.63753,-17.28902 -28.48081,-28.24481c-8.84326,-10.9558 -12.32462,-23.19896 -19.14956,-39.73568c-6.82496,-16.53674 -7.59731,-22.35522 -29.05216,-18.71591c-21.45486,3.63932 -17.57456,31.34444 -14.12239,42.83057c3.45219,11.48612 13.98217,35.06033 26.87209,50.29894z" id="svg_49" transform="rotate(-12.890448570251465 14.025085449218766,68.90484619140625) " stroke="null"/>
  <path fill="#cccccc" stroke-width="1.5" stroke-opacity="null" d="m117.557265,87.588436c12.75173,14.95639 40.47663,45.54859 70.00874,63.38317c29.5321,17.83457 70.26255,35.87309 111.43232,42.16214c41.16976,6.28905 91.73204,1.03511 119.2416,-4.87714c27.50955,-5.91225 64.33226,-19.73253 79.84475,-28.11451c15.51249,-8.38198 18.85601,-21.35825 10.69669,-38.56782c-8.15932,-17.20957 -21.9348,-16.12406 -35.54919,-10.55079c-13.61439,5.57327 -15.78939,6.62676 -34.33008,14.13305c-18.54067,7.50629 -30.00741,14.90593 -63.47569,17.44183c-33.46827,2.53591 -61.47041,-3.43848 -83.21802,-6.85316c-21.7476,-3.41468 -47.93701,-14.83024 -64.48097,-22.94514c-16.54397,-8.1149 -36.74922,-24.83079 -46.92281,-31.5256c-10.1736,-6.69479 -19.42697,-16.96883 -28.17543,-27.72172c-8.74845,-10.75291 -12.19248,-22.76933 -18.94424,-38.9998c-6.75178,-16.23048 -7.51585,-21.94121 -28.74066,-18.36929c-21.22482,3.57192 -17.38613,30.76395 -13.97097,42.03736c3.41517,11.2734 13.83225,34.41103 26.58397,49.36742l-0.00001,0z" id="svg_50" transform="rotate(-12.890448570251465 300.6938476562501,95.57171630859376) " stroke="null"/>
  <path fill="#cccccc" stroke-width="1.5" stroke-opacity="null" d="m410.892755,54.254856c12.75173,14.95639 40.47663,45.54859 70.00873,63.38317c29.5321,17.83457 70.26255,35.87309 111.43232,42.16214c41.16976,6.28905 91.73205,1.03511 119.2416,-4.87714c27.50955,-5.91225 64.33226,-19.73253 79.84475,-28.11451c15.51249,-8.38198 18.85601,-21.35825 10.69669,-38.56782c-8.15932,-17.20957 -21.9348,-16.12406 -35.54919,-10.55079c-13.61439,5.57327 -15.78939,6.62676 -34.33008,14.13305c-18.54067,7.50629 -30.00741,14.90593 -63.47569,17.44183c-33.46827,2.53591 -61.47041,-3.43848 -83.21802,-6.85316c-21.7476,-3.41468 -47.93701,-14.83024 -64.48097,-22.94514c-16.54397,-8.1149 -36.74922,-24.83079 -46.92281,-31.5256c-10.1736,-6.69479 -19.42697,-16.96883 -28.17543,-27.72172c-8.74845,-10.75291 -12.19248,-22.76933 -18.94424,-38.9998c-6.75178,-16.23048 -7.51585,-21.94121 -28.74066,-18.36929c-21.22482,3.57192 -17.38613,30.76395 -13.97097,42.03736c3.41517,11.2734 13.83225,34.41103 26.58397,49.36742z" id="svg_51" transform="rotate(-3.7747697830200195 594.0292968750006,62.23815917968774) " stroke="null"/>
  <path fill="#b2b2b2" stroke-width="1.5" stroke-opacity="null" d="m405.029215,58.653316c7.64878,12.31211 45.323,38.86636 78.27146,52.40025c32.94847,13.53392 65.38135,25.82146 107.84172,31.64856c42.46036,5.8271 96.4783,3.2211 114.3254,0.21357c17.84708,-3.00754 72.85666,-21.01364 81.97633,-26.3708c9.11964,-5.35717 13.39269,-12.80716 8.48389,-17.99945c-4.90879,-5.1923 -8.94904,-6.32331 -17.87256,-0.59019c-8.92354,5.73312 -21.2792,11.46624 -40.4011,18.42116c-19.12189,6.95493 -30.30082,9.86847 -64.81826,12.2181c-34.51744,2.34964 -76.87974,-2.63159 -89.43153,-4.32332c-12.55181,-1.69175 -53.44322,-13.34596 -70.5058,-20.86479c-17.06259,-7.51883 -42.95067,-20.30085 -53.44318,-26.5039c-10.49252,-6.20303 -19.60998,-12.78081 -28.63269,-22.74386c-9.0227,-9.96307 -11.66815,-12.59344 -18.63156,-27.63172c-6.96344,-15.03829 -10.70899,-22.24565 -19.11681,-19.49044c-8.40784,2.75523 -4.32307,16.48036 -1.9696,23.34132c2.35345,6.86095 6.27554,15.96339 13.92429,28.27551z" id="svg_52" transform="rotate(-0.586915135383606 593.0024414062523,76.31982421874905) " stroke="null"/>
  <ellipse fill="#e5e5e5" stroke-width="1.5" cx="-484.668786" cy="74.666051" id="svg_53" rx="267.333857" ry="175.333677"/>
  <path fill="#cccccc" stroke-width="1.5" stroke-opacity="null" d="m-515.112695,68.254926c12.75173,14.95639 40.47663,45.54859 70.00873,63.38317c29.5321,17.83457 70.26255,35.87309 111.43232,42.16214c41.16976,6.28905 91.73205,1.03511 119.2416,-4.87714c27.50955,-5.91225 64.33226,-19.73253 79.84475,-28.11451c15.51249,-8.38198 18.85601,-21.35825 10.69669,-38.56782c-8.15932,-17.20957 -21.9348,-16.12406 -35.54919,-10.55079c-13.61439,5.57327 -15.78939,6.62676 -34.33008,14.13305c-18.54067,7.50629 -30.00741,14.90593 -63.47569,17.44183c-33.46827,2.53591 -61.47041,-3.43848 -83.21802,-6.85316c-21.7476,-3.41468 -47.93701,-14.83024 -64.48097,-22.94514c-16.54397,-8.1149 -36.74922,-24.83079 -46.92281,-31.5256c-10.1736,-6.69479 -19.42697,-16.96883 -28.17543,-27.72172c-8.74845,-10.75291 -12.19248,-22.76933 -18.94424,-38.9998c-6.75178,-16.23048 -7.51585,-21.94121 -28.74066,-18.36929c-21.22482,3.57192 -17.38613,30.76395 -13.97097,42.03736c3.41517,11.2734 13.83225,34.41103 26.58397,49.36742z" id="svg_54" transform="rotate(-43.92781448364258 -331.97616577148443,76.23822021484372) " stroke="null"/>
  <path fill="#b2b2b2" stroke-width="1.5" stroke-opacity="null" d="m137.657715,93.761706c7.41629,13.28817 43.94539,41.94756 75.89237,56.55438c31.94699,14.60685 63.39407,27.86851 104.56384,34.15756c41.16976,6.28905 93.54581,3.47646 110.85044,0.2305c17.30462,-3.24597 70.64216,-22.67954 79.48464,-28.46139c8.84244,-5.78187 12.98561,-13.82248 8.22602,-19.4264c-4.75959,-5.60392 -8.67703,-6.8246 -17.32932,-0.63697c-8.65231,6.18762 -20.63241,12.37524 -39.1731,19.88153c-18.54067,7.50629 -29.37981,10.65081 -62.84809,13.18671c-33.46827,2.53591 -74.54295,-2.84021 -86.71323,-4.66606c-12.17029,-1.82586 -51.81879,-14.40398 -68.36275,-22.51888c-16.54397,-8.1149 -41.64517,-21.91024 -51.81876,-28.60505c-10.1736,-6.69479 -19.01393,-13.79403 -27.76239,-24.54692c-8.74845,-10.75291 -11.31349,-13.59181 -18.06525,-29.82228c-6.75178,-16.23048 -10.38348,-24.00922 -18.53575,-21.03558c-8.15228,2.97365 -4.19166,17.78687 -1.90973,25.19175c2.28192,7.40486 6.08479,17.22891 13.50106,30.5171z" id="svg_56" transform="rotate(-13.619129180908203 319.91748046875006,112.82873535156249) " stroke="null"/>
  <path fill="#4c4c4c" stroke-width="1.5" stroke-opacity="null" fill-opacity="null" d="m168.745855,123.385136c6.68132,7.52404 36.91851,23.43363 65.69952,31.70432c28.78102,8.27069 49.51022,13.89936 86.60003,17.46035c37.08981,3.56099 80.77527,3.50355 96.365,1.66562c15.58972,-1.83793 56.96244,-12.40604 64.92861,-15.67985c7.96616,-3.27381 16.78891,-7.58147 14.3905,-8.95992c-2.39841,-1.37846 -3.85461,-1.78051 -11.64946,1.72306c-7.79486,3.50356 -18.58773,7.00712 -35.29101,11.25733c-16.70328,4.25022 -26.46825,6.03071 -56.6198,7.46659c-30.15154,1.43588 -67.15569,-1.60819 -78.11989,-2.64202c-10.9642,-1.03384 -46.6835,-8.15583 -61.58795,-12.75065c-14.90445,-4.59483 -37.5181,-12.40603 -46.68348,-16.19677c-9.16539,-3.79073 -17.12964,-7.81046 -25.01111,-13.89897c-7.88148,-6.08852 -10.19232,-7.69596 -16.27498,-16.88599c-6.08267,-9.19003 -7.88149,-15.7951 -10.96517,-14.47409c-3.08367,1.32101 1.19921,11.25732 3.255,15.45011c2.05578,4.19279 4.28287,7.23684 10.96419,14.76088z" id="svg_57" transform="rotate(-12.397052764892578 325.2877197265625,134.2293701171876) " stroke="null"/>
  <path fill="#4c4c4c" stroke-width="1.5" stroke-opacity="null" fill-opacity="null" d="m419.070735,85.985186c7.22244,7.80122 39.90855,24.2969 71.02054,32.87227c31.112,8.57538 53.52007,14.4114 93.61379,18.10358c40.09373,3.69217 87.31729,3.63261 104.16964,1.72698c16.85233,-1.90564 61.57584,-12.86307 70.1872,-16.25748c8.61134,-3.39442 18.14864,-7.86077 15.55599,-9.29c-2.59266,-1.42924 -4.1668,-1.8461 -12.59296,1.78654c-8.42616,3.63263 -20.09315,7.26525 -38.14924,11.67204c-18.05608,4.40679 -28.61192,6.25287 -61.20545,7.74165c-32.59352,1.48877 -72.59465,-1.66744 -84.44685,-2.73935c-11.85219,-1.07193 -50.46441,-8.45628 -66.57597,-13.22037c-16.11157,-4.7641 -40.55671,-12.86306 -50.46439,-16.79345c-9.9077,-3.93037 -18.51698,-8.09818 -27.03677,-14.41099c-8.5198,-6.31281 -11.0178,-7.97947 -17.5931,-17.50805c-6.5753,-9.52858 -8.51981,-16.37698 -11.85324,-15.0073c-3.33342,1.36967 1.29633,11.67203 3.51862,16.01927c2.22228,4.34725 4.62974,7.50344 11.85219,15.30466z" id="svg_58" transform="rotate(3.2284388542175293 588.2910156250001,97.22888183593781) " stroke="null"/>
  <path fill="#b2b2b2" stroke-width="1.5" stroke-opacity="null" d="m-175.342605,70.761686c7.41629,13.28817 43.94539,41.94756 75.89237,56.55438c31.94699,14.60685 63.39407,27.86851 104.56384,34.15756c41.16976,6.28905 93.54581,3.47646 110.85044,0.2305c17.30462,-3.24597 70.64216,-22.67954 79.48464,-28.46139c8.84244,-5.78187 12.98561,-13.82248 8.22602,-19.4264c-4.75959,-5.60392 -8.67703,-6.8246 -17.32932,-0.63697c-8.65231,6.18762 -20.63241,12.37524 -39.1731,19.88153c-18.54067,7.50629 -29.37981,10.65081 -62.84809,13.18671c-33.46827,2.53591 -74.54295,-2.84021 -86.71323,-4.66606c-12.17029,-1.82586 -51.81879,-14.40398 -68.36275,-22.51888c-16.54397,-8.1149 -41.64517,-21.91024 -51.81876,-28.60505c-10.1736,-6.69479 -19.01393,-13.79403 -27.76239,-24.54692c-8.74845,-10.75291 -11.31349,-13.59181 -18.06525,-29.82228c-6.75178,-16.23048 -10.38348,-24.00922 -18.53575,-21.03558c-8.15228,2.97365 -4.19166,17.78687 -1.90973,25.19175c2.28192,7.40486 6.08479,17.22891 13.50106,30.5171z" id="svg_59" transform="rotate(-6.82213020324707 6.91711425781271,89.82867431640626) " stroke="null"/>
  <path fill="#4c4c4c" stroke-width="1.5" stroke-opacity="null" fill-opacity="null" d="m-147.852065,99.843266c6.68534,7.89984 36.94069,24.60407 65.73899,33.28785c28.79831,8.68379 49.53996,14.5936 86.65205,18.33245c37.11209,3.73885 80.82379,3.67854 96.42288,1.74881c15.59909,-1.92973 56.99666,-13.02569 64.96762,-16.46301c7.97094,-3.43733 16.79899,-7.96015 14.39914,-9.40744c-2.39985,-1.44731 -3.85693,-1.86944 -11.65646,1.80912c-7.79954,3.67855 -18.59889,7.3571 -35.31221,11.8196c-16.71331,4.4625 -26.48415,6.33192 -56.65381,7.83952c-30.16965,1.5076 -67.19603,-1.68851 -78.16681,-2.77398c-10.97079,-1.08548 -46.71155,-8.56319 -61.62495,-13.38751c-14.9134,-4.82432 -37.54064,-13.02567 -46.71152,-17.00575c-9.1709,-3.98006 -17.13993,-8.20057 -25.02614,-14.59318c-7.88621,-6.39262 -10.19844,-8.08035 -16.28475,-17.72939c-6.08633,-9.64905 -7.88623,-16.58402 -10.97176,-15.19703c-3.08552,1.38699 1.19993,11.81959 3.25695,16.2218c2.05702,4.4022 4.28545,7.59829 10.97078,15.49814z" id="svg_60" transform="rotate(-4.380867958068848 8.783874511718558,111.22912597656246) " stroke="null"/>
  <path fill="#b2b2b2" stroke-width="1.5" stroke-opacity="null" d="m-527.342945,72.761686c7.41629,13.28817 43.94539,41.94756 75.89237,56.55438c31.94699,14.60685 63.39407,27.86851 104.56384,34.15756c41.16976,6.28905 93.54581,3.47646 110.85044,0.2305c17.30462,-3.24597 70.64216,-22.67954 79.48464,-28.46139c8.84244,-5.78187 12.98561,-13.82248 8.22602,-19.4264c-4.75959,-5.60392 -8.67703,-6.8246 -17.32932,-0.63697c-8.65231,6.18762 -20.63241,12.37524 -39.1731,19.88153c-18.54067,7.50629 -29.37981,10.65081 -62.84809,13.18671c-33.46827,2.53591 -74.54295,-2.84021 -86.71323,-4.66606c-12.17029,-1.82586 -51.81879,-14.40398 -68.36275,-22.51888c-16.54397,-8.1149 -41.64517,-21.91024 -51.81876,-28.60505c-10.1736,-6.69479 -19.01393,-13.79403 -27.76239,-24.54692c-8.74845,-10.75291 -11.31349,-13.59181 -18.06525,-29.82228c-6.75178,-16.23048 -10.38348,-24.00922 -18.53575,-21.03558c-8.15228,2.97365 -4.19166,17.78687 -1.90973,25.19175c2.28192,7.40486 6.08479,17.22891 13.50106,30.5171z" id="svg_61" transform="rotate(-38.572505950927734 -345.0832214355469,91.82873535156251) " stroke="null"/>
  <path fill="#4c4c4c" stroke-width="1.5" stroke-opacity="null" fill-opacity="null" d="m-468.771755,84.202056c6.70324,7.9978 37.03959,24.90918 65.91499,33.70064c28.87541,8.79147 49.6726,14.77457 86.88405,18.55978c37.21145,3.78522 81.04018,3.72416 96.68103,1.7705c15.64085,-1.95366 57.14926,-13.18722 65.14156,-16.66716c7.99228,-3.47996 16.84397,-8.05886 14.43769,-9.5241c-2.40627,-1.46526 -3.86726,-1.89262 -11.68767,1.83155c-7.82042,3.72417 -18.64868,7.44834 -35.40675,11.96617c-16.75806,4.51784 -26.55506,6.41044 -56.80549,7.93674c-30.25042,1.52629 -67.37593,-1.70945 -78.37609,-2.80838c-11.00016,-1.09894 -46.83661,-8.66938 -61.78994,-13.55352c-14.95333,-4.88415 -37.64115,-13.1872 -46.83658,-17.21664c-9.19545,-4.02941 -17.18582,-8.30226 -25.09314,-14.77414c-7.90733,-6.47189 -10.22575,-8.18055 -16.32835,-17.94925c-6.10263,-9.7687 -7.90735,-16.78967 -11.00114,-15.38548c-3.09378,1.40419 1.20315,11.96616 3.26567,16.42296c2.06253,4.45679 4.29693,7.69251 11.00015,15.69033l0.00001,0z" id="svg_62" transform="rotate(-43.36936950683594 -311.7164916992188,95.72906494140625) " stroke="null"/>
  <ellipse fill="#e5e5e5" stroke-width="1.5" cx="1271.333247" cy="-18.667492" id="svg_3" rx="215.333755" ry="166.000325"/>
  <ellipse fill="#e5e5e5" stroke-width="1.5" cx="1424.333564" cy="17.665923" id="svg_4" rx="239.333802" ry="169.333665"/>
  <ellipse fill="#e5e5e5" stroke-width="1.5" cx="1618.000571" cy="69.332702" id="svg_5" rx="106.000208" ry="114.000223"/>
  <ellipse fill="#e5e5e5" stroke-width="1.5" cx="1754.667505" cy="79.999389" id="svg_6" rx="114.666891" ry="111.333551"/>
  <path fill="#cccccc" stroke-width="1.5" stroke-opacity="null" d="m1512.362685,115.300157c5.77937,6.75394 18.34491,20.56863 31.72952,28.62228c13.38461,8.05366 31.84456,16.19941 50.50362,19.03939c18.65905,2.83998 41.57501,0.46743 54.04295,-2.2024c12.46794,-2.66983 29.15682,-8.91072 36.18742,-12.69582c7.03061,-3.7851 8.54597,-9.64486 4.84798,-17.41628c-3.69798,-7.77142 -9.94134,-7.28123 -16.11168,-4.76447c-6.17035,2.51675 -7.15611,2.99248 -15.55916,6.38213c-8.40305,3.38966 -13.60003,6.73115 -28.7686,7.8763c-15.16857,1.14516 -27.85976,-1.55273 -37.71627,-3.09471c-9.85649,-1.54199 -21.72612,-6.69698 -29.22421,-10.36146c-7.4981,-3.66449 -16.65557,-11.21298 -21.26646,-14.23619c-4.61091,-3.0232 -8.80474,-7.66271 -12.76974,-12.51845c-3.96499,-4.85574 -5.5259,-10.28206 -8.58595,-17.61134c-3.06006,-7.32929 -3.40635,-9.90811 -13.02591,-8.29512c-9.61956,1.61299 -7.87978,13.89224 -6.33195,18.98303c1.54783,5.09079 6.26908,15.53918 12.04844,22.29311z" id="svg_38" transform="rotate(-12.263904571533203 1595.3640136718752,118.90518188476499) " stroke="null"/>
  <ellipse fill="#e5e5e5" stroke-width="1.5" cx="1960.334585" cy="26.999275" id="svg_7" rx="228.667115" ry="134.000263"/>
  <path fill="#cccccc" stroke-width="1.5" stroke-opacity="null" d="m1664.363795,108.633437c5.77937,6.75394 18.34492,20.56863 31.72952,28.62228c13.38461,8.05366 31.84456,16.19941 50.50362,19.03939c18.65905,2.83998 41.57501,0.46743 54.04295,-2.2024c12.46794,-2.66983 29.15682,-8.91072 36.18743,-12.69582c7.0306,-3.7851 8.54596,-9.64486 4.84797,-17.41628c-3.69798,-7.77142 -9.94134,-7.28123 -16.11168,-4.76447c-6.17035,2.51675 -7.15611,2.99248 -15.55916,6.38213c-8.40305,3.38966 -13.60003,6.73115 -28.7686,7.8763c-15.16857,1.14516 -27.85976,-1.55273 -37.71626,-3.09471c-9.8565,-1.54199 -21.72613,-6.69698 -29.22422,-10.36146c-7.4981,-3.66449 -16.65557,-11.21298 -21.26646,-14.23619c-4.61091,-3.0232 -8.80474,-7.6627 -12.76974,-12.51845c-3.96499,-4.85574 -5.5259,-10.28206 -8.58595,-17.61134c-3.06006,-7.32929 -3.40635,-9.90811 -13.02591,-8.29512c-9.61956,1.61299 -7.87978,13.89224 -6.33196,18.98303c1.54784,5.09079 6.26909,15.53918 12.04845,22.29311z" id="svg_39" transform="rotate(-12.263904571533203 1747.3651123046875,112.2384643554686) " stroke="null"/>
  <ellipse fill="#e5e5e5" stroke-width="1.5" cx="2319.003282" cy="122.999879" id="svg_29" rx="126.000247" ry="134.000263"/>
  <ellipse fill="#e5e5e5" stroke-width="1.5" cx="2172.00147" cy="84.99941" id="svg_8" rx="126.000247" ry="134.000263"/>
  <ellipse fill="#e5e5e5" stroke-width="1.5" cx="2145.335354" cy="382.666405" id="svg_10" ry="0.666668"/>
  <path fill="#cccccc" stroke-width="1.5" stroke-opacity="null" d="m1210.892895,59.588197c12.75173,14.95639 40.47663,45.54859 70.00873,63.38317c29.5321,17.83457 70.26255,35.87309 111.43232,42.16214c41.16976,6.28905 91.73205,1.03511 119.2416,-4.87714c27.50955,-5.91225 64.33226,-19.73253 79.84475,-28.11451c15.51249,-8.38198 18.85601,-21.35825 10.69669,-38.56782c-8.15932,-17.20957 -21.9348,-16.12406 -35.54919,-10.55079c-13.61439,5.57327 -15.78939,6.62676 -34.33008,14.13305c-18.54067,7.50629 -30.00741,14.90593 -63.47569,17.44183c-33.46827,2.53591 -61.47041,-3.43848 -83.21802,-6.85316c-21.7476,-3.41468 -47.93701,-14.83024 -64.48097,-22.94514c-16.54397,-8.1149 -36.74922,-24.83079 -46.92281,-31.5256c-10.1736,-6.69479 -19.42697,-16.96883 -28.17543,-27.72172c-8.74845,-10.75291 -12.19248,-22.76933 -18.94424,-38.9998c-6.75178,-16.23048 -7.51585,-21.94121 -28.74066,-18.36929c-21.22482,3.57192 -17.38613,30.76395 -13.97097,42.03736c3.41517,11.2734 13.83225,34.41103 26.58397,49.36742z" id="svg_35" transform="rotate(-3.7747697830200195 1394.029418945313,67.57147216796744) " stroke="null"/>
  <path fill="#b2b2b2" stroke-width="1.5" stroke-opacity="null" d="m1205.029355,63.986657c7.64878,12.31211 45.323,38.86636 78.27146,52.40025c32.94847,13.53392 65.38135,25.82146 107.84172,31.64856c42.46036,5.8271 96.4783,3.2211 114.3254,0.21357c17.84708,-3.00754 72.85666,-21.01364 81.97633,-26.3708c9.11964,-5.35717 13.39269,-12.80716 8.48389,-17.99945c-4.90879,-5.1923 -8.94904,-6.32331 -17.87256,-0.59019c-8.92354,5.73312 -21.2792,11.46624 -40.4011,18.42116c-19.12189,6.95493 -30.30082,9.86847 -64.81826,12.2181c-34.51744,2.34964 -76.87974,-2.63159 -89.43153,-4.32332c-12.55181,-1.69175 -53.44322,-13.34596 -70.5058,-20.86479c-17.06259,-7.51883 -42.95067,-20.30085 -53.44318,-26.5039c-10.49252,-6.20303 -19.60998,-12.78081 -28.63269,-22.74386c-9.0227,-9.96307 -11.66815,-12.59344 -18.63156,-27.63172c-6.96344,-15.03829 -10.70899,-22.24565 -19.11681,-19.49044c-8.40784,2.75523 -4.32307,16.48036 -1.9696,23.34132c2.35345,6.86095 6.27554,15.96339 13.92429,28.27551z" id="svg_28" transform="rotate(-0.586915135383606 1393.0025634765634,81.65315246582198) " stroke="null"/>
  <path fill="#cccccc" stroke-width="1.5" stroke-opacity="null" d="m2062.667085,149.455737c5.80487,6.46283 18.42588,19.68207 31.86955,27.38859c13.44368,7.70653 31.98509,15.50118 50.7265,18.21875c18.7414,2.71758 41.75849,0.44729 54.28146,-2.10747c12.52296,-2.55475 29.28549,-8.52665 36.34713,-12.1486c7.06163,-3.62195 8.58368,-9.22914 4.86937,-16.6656c-3.7143,-7.43645 -9.98522,-6.96739 -16.18279,-4.55911c-6.19758,2.40827 -7.18769,2.8635 -15.62783,6.10705c-8.44013,3.24355 -13.66005,6.44102 -28.89556,7.53681c-15.23551,1.0958 -27.98271,-1.4858 -37.88271,-2.96132c-9.9,-1.47553 -21.82201,-6.40833 -29.35319,-9.91486c-7.53119,-3.50654 -16.72908,-10.72968 -21.36032,-13.62258c-4.63126,-2.89289 -8.84359,-7.33242 -12.82609,-11.97888c-3.98249,-4.64644 -5.55029,-9.83888 -8.62385,-16.85225c-3.07356,-7.01338 -3.42138,-9.48105 -13.08339,-7.93758c-9.66202,1.54347 -7.91456,13.29345 -6.35991,18.16482c1.55467,4.87137 6.29676,14.86941 12.10163,21.33223z" id="svg_40" transform="rotate(14.78189468383789 2146.034912109375,152.90539550781307) " stroke="null"/>
  <rect fill="#e5e5e5" stroke-width="1.5" x="2216.001743" y="-18.000801" width="196.000384" height="173.333673" id="svg_15"/>
  <path fill="#b2b2b2" stroke-width="1.5" stroke-opacity="null" d="m1517.727445,125.157327c3.19518,3.96949 20.2567,13.03784 34.02053,17.40124c13.76384,4.3634 24.66871,7.46206 42.40603,9.34075c17.73732,1.87869 41.5607,2.5663 49.01611,1.59666c7.45542,-0.96965 26.36465,-4.97848 30.17428,-6.70565c3.80963,-1.72718 12.75636,-6.74568 9.55383,-9.75745c-3.20254,-3.01177 -6.2988,-2.86411 -10.0265,-1.01571c-3.72771,1.84838 -8.88914,3.69677 -16.87709,5.93907c-7.98795,2.24231 -12.65781,3.18165 -27.07708,3.93918c-14.41925,0.75753 -32.11561,-0.84844 -37.35898,-1.39386c-5.24337,-0.54543 -22.32527,-4.3028 -29.45297,-6.72691c-7.1277,-2.42412 -17.94214,-6.5451 -22.32527,-8.545c-4.38313,-1.99989 -8.19184,-4.12059 -11.96097,-7.33273c-3.76913,-3.21215 -4.87423,-4.06019 -7.78312,-8.90861c-2.90889,-4.84842 -2.89283,-9.89972 -7.68674,-6.94583c-4.79391,2.9539 -1.58193,7.003 -0.59879,9.21501c0.98312,2.21201 2.78156,5.93034 5.97674,9.89983l-0.00001,0.00001z" id="svg_31" transform="rotate(-7.418992519378662 1596.6810302734373,129.54913330078236) " stroke="null"/>
  <path fill="#4c4c4c" stroke-width="1.5" stroke-opacity="null" fill-opacity="null" d="m1219.070875,91.318527c7.22244,7.80122 39.90855,24.2969 71.02054,32.87227c31.112,8.57538 53.52007,14.4114 93.61379,18.10358c40.09373,3.69217 87.31729,3.63261 104.16964,1.72698c16.85233,-1.90564 61.57584,-12.86307 70.1872,-16.25748c8.61134,-3.39442 18.14864,-7.86077 15.55599,-9.29c-2.59266,-1.42924 -4.1668,-1.8461 -12.59296,1.78654c-8.42616,3.63263 -20.09315,7.26525 -38.14924,11.67204c-18.05608,4.40679 -28.61192,6.25287 -61.20545,7.74165c-32.59352,1.48877 -72.59465,-1.66744 -84.44685,-2.73935c-11.85219,-1.07193 -50.46441,-8.45628 -66.57597,-13.22037c-16.11157,-4.7641 -40.55671,-12.86306 -50.46439,-16.79345c-9.9077,-3.93037 -18.51698,-8.09818 -27.03677,-14.41099c-8.5198,-6.31281 -11.0178,-7.97947 -17.5931,-17.50805c-6.5753,-9.52858 -8.51981,-16.37698 -11.85324,-15.0073c-3.33342,1.36967 1.29633,11.67203 3.51862,16.01927c2.22228,4.34725 4.62974,7.50344 11.85219,15.30466z" id="svg_21" transform="rotate(3.2284388542175293 1388.291015625,102.5622253417967) " stroke="null"/>
  <path fill="#cccccc" stroke-width="1.5" stroke-opacity="null" d="m1735.454755,98.940127c10.13021,9.81828 44.7348,39.21821 59.48846,42.97888c14.75366,3.76068 44.09542,10.18217 58.6913,12.28533c14.59589,2.10317 73.14536,-2.4269 88.73509,-4.26483c15.58972,-1.83793 65.11781,-16.40647 73.21286,-19.72932c8.09504,-3.32286 44.89454,-22.29225 62.07353,-35.61928c17.17899,-13.32703 39.32588,-35.36793 48.27964,-46.67235c8.95376,-11.30442 31.06352,-54.96596 35.77812,-70.59476c4.7146,-15.62881 7.12231,-47.79323 6.84708,-61.32248c-0.27523,-13.52925 -5.89041,-35.30295 -10.17107,-48.48576c-4.28065,-13.18281 -8.29133,-23.41448 -10.39289,-30.37228c-2.10157,-6.95781 -11.08983,-21.25122 -29.25228,-16.04936c-18.16246,5.20187 -13.70735,21.27273 -12.62817,27.95971c2.15835,13.37397 7.05599,32.93214 9.45455,42.58227c2.39856,9.65012 3.37778,25.65662 3.04147,41.34011c-0.33632,15.68348 -4.54458,31.28888 -8.28537,40.745c-3.74079,9.45612 -16.7632,33.7886 -30.08332,47.09595c-13.32013,13.30734 -25.98053,24.6342 -43.14775,37.62923c-17.16721,12.99504 -33.82648,23.1976 -41.62133,26.70117c-7.79486,3.50356 -18.16111,7.20766 -34.86439,11.45787c-16.70328,4.25022 -30.97137,7.29976 -56.50675,7.78017c-25.53538,0.48041 -48.92796,-2.15568 -62.02527,-4.19218c-13.0973,-2.03649 -37.49497,-9.69667 -48.93729,-15.0081c-11.44232,-5.31143 -25.6552,-23.23772 -32.82805,-31.82154c-7.17284,-8.58382 -12.85304,-24.94262 -21.89444,-44.07748c-9.04139,-19.13486 -9.39799,-27.11603 -13.57365,-35.93057c-4.17566,-8.81455 -13.39319,-25.67826 -33.08372,-17.83899c-19.69054,7.83927 -13.84125,28.01801 -10.54738,37.61092c3.29387,9.59291 9.99354,27.27984 17.89625,43.90442c7.90272,16.62457 26.21455,52.08998 36.34477,61.90825z" id="svg_41" transform="rotate(19.824222564697266 1923.177978515625,-12.635940551757713) " stroke="null"/>
  <path fill="#b2b2b2" stroke-width="1.5" stroke-opacity="null" d="m1746.654955,99.132887c10.13021,9.81828 40.49562,27.45905 55.24928,31.21972c14.75366,3.76068 42.00605,8.8094 56.60193,10.91256c14.59589,2.10317 58.39444,2.35931 73.98417,0.52138c15.58972,-1.83793 56.78245,-14.46456 64.8775,-17.78741c8.09504,-3.32286 36.97498,-16.24828 54.15397,-29.57531c17.17899,-13.32703 38.08435,-34.38886 45.74201,-40.44259c7.65766,-6.05372 34.62384,-50.29268 39.47026,-61.82736c2.42321,-5.76734 7.02597,-23.50015 9.26523,-39.87142c1.11964,-8.18565 -0.28435,-38.91843 -0.98787,-48.07584c-0.70352,-9.15741 -3.70267,-29.85214 -5.80423,-36.80994c-2.10157,-6.95781 -5.64746,-12.0518 -12.95315,-9.16931c-7.30569,2.88248 -8.16173,8.64363 -7.08255,15.33061c2.15835,13.37397 6.30106,27.88934 6.40235,34.11567c0.10128,6.22633 3.13742,35.31019 0.9742,47.40031c-2.16322,12.09012 -5.84655,23.25432 -9.58734,32.71044c-3.74079,9.45612 -20.75026,38.9464 -34.07038,52.25375c-13.32013,13.30734 -25.98053,24.6342 -43.14775,37.62923c-17.16721,12.99504 -33.82648,23.1976 -41.62133,26.70117c-7.79486,3.50356 -18.16111,7.20766 -34.86439,11.45787c-16.70328,4.25022 -30.97137,7.29976 -56.50675,7.78017c-25.53538,0.48041 -48.92796,-2.15568 -62.02527,-4.19218c-13.0973,-2.03649 -30.62527,-6.85825 -45.52972,-11.45307c-14.90445,-4.59483 -30.583,-17.74078 -39.33651,-26.28627c-8.75351,-8.54548 -23.48567,-26.42451 -32.52707,-45.55937c-9.04139,-19.13486 -10.67786,-27.71763 -13.15785,-31.82851c-2.47999,-4.11088 -3.56418,-11.68227 -12.60586,-8.2134c-9.04167,3.46885 -7.50822,8.72711 -5.74045,14.08672c1.76777,5.35961 5.7927,17.10135 13.69541,33.72593c7.90272,16.62457 27.00194,45.42818 37.13216,55.24645z" id="svg_33" transform="rotate(19.824222564697266 1920.448486328125,0.21191406250017247) " stroke="null"/>
  <path fill="#b2b2b2" stroke-width="1.5" stroke-opacity="null" d="m1662.727185,114.157347c3.19518,3.96949 20.2567,13.03784 34.02053,17.40124c13.76384,4.3634 24.66871,7.46206 42.40603,9.34075c17.73732,1.87869 41.5607,2.5663 49.01611,1.59666c7.45542,-0.96965 26.36465,-4.97848 30.17428,-6.70565c3.80963,-1.72718 12.75636,-6.74568 9.55383,-9.75745c-3.20254,-3.01177 -6.2988,-2.86411 -10.0265,-1.01571c-3.72771,1.84838 -8.88914,3.69677 -16.87709,5.93907c-7.98795,2.24231 -12.65781,3.18165 -27.07708,3.93918c-14.41925,0.75753 -32.11561,-0.84844 -37.35898,-1.39386c-5.24337,-0.54543 -22.32527,-4.3028 -29.45297,-6.72691c-7.1277,-2.42412 -17.94214,-6.5451 -22.32527,-8.545c-4.38313,-1.99989 -8.19184,-4.12059 -11.96097,-7.33273c-3.76913,-3.21215 -4.87423,-4.06019 -7.78312,-8.90861c-2.90889,-4.84842 -2.89283,-9.89972 -7.68674,-6.94583c-4.79391,2.9539 -1.58193,7.003 -0.59879,9.21501c0.98312,2.21201 2.78156,5.93034 5.97674,9.89983l-0.00001,0.00001z" id="svg_30" transform="rotate(-7.418992519378662 1741.6807861328127,118.54916381835938) " stroke="null"/>
  <path fill="#4c4c4c" stroke-width="1.5" stroke-opacity="null" fill-opacity="null" d="m1755.855805,98.727017c10.13021,9.81828 41.35968,23.95857 56.11334,27.71924c14.75366,3.76068 38.192,8.05838 52.78788,10.16154c14.59589,2.10317 52.69891,2.28656 68.28864,0.44863c15.58972,-1.83793 55.55369,-12.9586 63.64874,-16.28145c8.09504,-3.32286 30.56481,-15.35474 47.7438,-28.68177c17.17899,-13.32703 36.7681,-32.1427 44.42576,-38.19643c7.65766,-6.05372 30.78815,-43.24061 35.63457,-54.77529c2.42321,-5.76734 9.08242,-25.65882 11.32168,-42.03009c1.11964,-8.18564 2.68007,-23.48945 2.35237,-40.77605c-0.16385,-8.6433 -1.97063,-27.99622 -3.13146,-35.29316c-1.16084,-7.29694 -2.18727,-17.19684 -6.47022,-15.75838c-4.28295,1.43847 -0.16892,12.1402 0.91026,18.82718c2.15835,13.37397 2.82614,28.07905 2.92743,34.30538c0.10128,6.22633 -1.64293,33.84452 -3.80615,45.93464c-2.16322,12.09012 -5.84655,23.25432 -9.58734,32.71044c-3.74079,9.45612 -20.75026,38.9464 -34.07038,52.25375c-13.32013,13.30734 -25.98053,24.6342 -43.14775,37.62923c-17.16721,12.99504 -33.82648,23.1976 -41.62133,26.70117c-7.79486,3.50356 -18.16111,7.20766 -34.86439,11.45787c-16.70328,4.25022 -30.97137,7.29976 -56.50675,7.78017c-25.53538,0.48041 -48.92796,-2.15568 -62.02527,-4.19218c-13.0973,-2.03649 -30.62527,-6.85825 -45.52972,-11.45307c-14.90445,-4.59483 -33.15357,-15.04243 -41.90708,-23.58792c-8.75351,-8.54548 -24.6633,-22.811 -33.7047,-41.94586c-9.04139,-19.13486 -12.97514,-31.14143 -15.45513,-35.25231c-2.47999,-4.11088 -1.61686,-5.29766 -4.70054,-3.97665c-3.08367,1.32101 -1.7655,2.05056 0.00227,7.41017c1.76777,5.35961 6.41985,16.87527 14.32256,33.49985c7.90272,16.62457 25.91869,35.54308 36.04891,45.36135z" id="svg_24" transform="rotate(19.824222564697266 1920.9240722656248,1.721343994140321) " stroke="null"/>
  <path fill="#4c4c4c" stroke-width="1.5" stroke-opacity="null" fill-opacity="null" d="m1521.931325,124.341347c3.19519,3.96949 17.6554,12.36297 31.41924,16.72638c13.76384,4.3634 23.67709,7.33294 41.41441,9.21162c17.73732,1.87869 38.62885,1.84838 46.08427,0.87874c7.45541,-0.96964 27.24093,-6.5451 31.05056,-8.27228c3.80963,-1.72718 8.0289,-3.99979 6.88192,-4.72702c-1.14699,-0.72724 -1.84338,-0.93935 -5.57108,0.90904c-3.72771,1.84839 -8.88914,3.69677 -16.87709,5.93908c-7.98794,2.2423 -12.65781,3.18164 -27.07707,3.93917c-14.41926,0.75754 -32.11561,-0.84843 -37.35898,-1.39386c-5.24337,-0.54542 -22.32528,-4.3028 -29.45298,-6.72691c-7.1277,-2.42411 -17.94214,-6.5451 -22.32526,-8.54499c-4.38313,-1.99989 -8.19185,-4.1206 -11.96097,-7.33274c-3.76913,-3.21214 -4.87424,-4.06019 -7.78312,-8.90861c-2.9089,-4.84842 -3.76914,-8.33308 -5.24384,-7.63615c-1.47469,0.69693 0.5735,5.93907 1.55663,8.15108c0.98313,2.212 2.04818,3.81796 5.24336,7.78745z" id="svg_25" transform="rotate(-7.418992519378662 1596.7935791015623,130.06246948242077) " stroke="null"/>
  <path fill="#4c4c4c" stroke-width="1.5" stroke-opacity="null" fill-opacity="null" d="m1664.933095,113.341217c3.19518,3.96949 17.6554,12.36297 31.41923,16.72637c13.76384,4.3634 23.67709,7.33294 41.41441,9.21163c17.73732,1.87869 38.62886,1.84838 46.08427,0.87874c7.45542,-0.96965 27.24094,-6.54511 31.05057,-8.27228c3.80963,-1.72718 8.0289,-3.99979 6.88191,-4.72702c-1.14698,-0.72724 -1.84337,-0.93936 -5.57107,0.90904c-3.72771,1.84838 -8.88914,3.69677 -16.87709,5.93907c-7.98795,2.24231 -12.65781,3.18165 -27.07708,3.93918c-14.41925,0.75753 -32.11561,-0.84844 -37.35898,-1.39386c-5.24337,-0.54543 -22.32527,-4.3028 -29.45297,-6.72691c-7.1277,-2.42412 -17.94214,-6.5451 -22.32527,-8.545c-4.38313,-1.99989 -8.19184,-4.12059 -11.96097,-7.33273c-3.76913,-3.21215 -4.87423,-4.06019 -7.78312,-8.90861c-2.90889,-4.84842 -3.76913,-8.33309 -5.24383,-7.63616c-1.47469,0.69694 0.57349,5.93907 1.55663,8.15108c0.98312,2.21201 2.04818,3.81797 5.24336,7.78746z" id="svg_26" transform="rotate(-7.418992519378662 1739.79541015625,119.06234741211058) " stroke="null"/>
  <path fill="#b2b2b2" stroke-width="1.5" stroke-opacity="null" d="m2066.393125,152.823947c3.19518,3.96949 20.2567,13.03784 34.02053,17.40124c13.76384,4.3634 24.66871,7.46206 42.40603,9.34075c17.73732,1.87869 41.5607,2.5663 49.01611,1.59666c7.45542,-0.96965 26.36465,-4.97848 30.17428,-6.70565c3.80963,-1.72718 12.75636,-6.74568 9.55383,-9.75745c-3.20254,-3.01177 -6.2988,-2.86411 -10.0265,-1.01571c-3.72771,1.84838 -8.88914,3.69677 -16.87709,5.93907c-7.98795,2.24231 -12.65781,3.18165 -27.07708,3.93918c-14.41925,0.75753 -32.11561,-0.84844 -37.35898,-1.39386c-5.24337,-0.54543 -22.32527,-4.3028 -29.45297,-6.72691c-7.1277,-2.42412 -17.94214,-6.5451 -22.32527,-8.545c-4.38313,-1.99989 -8.19184,-4.12059 -11.96097,-7.33273c-3.76913,-3.21215 -4.87423,-4.06019 -7.78312,-8.90861c-2.90889,-4.84842 -2.89283,-9.89972 -7.68674,-6.94583c-4.79391,2.9539 -1.58193,7.003 -0.59879,9.21501c0.98312,2.21201 2.78156,5.93034 5.97674,9.89983l-0.00001,0.00001z" id="svg_32" transform="rotate(17.7925968170166 2145.346923828125,157.21575927734432) " stroke="null"/>
  <path fill="#4c4c4c" stroke-width="1.5" stroke-opacity="null" fill-opacity="null" d="m2068.938075,151.341687c3.19518,3.96949 17.6554,12.36297 31.41923,16.72637c13.76384,4.3634 23.67709,7.33294 41.41441,9.21163c17.73732,1.87869 38.62886,1.84838 46.08427,0.87874c7.45542,-0.96965 27.24094,-6.54511 31.05057,-8.27228c3.80963,-1.72718 8.0289,-3.99979 6.88191,-4.72702c-1.14698,-0.72724 -1.84337,-0.93936 -5.57107,0.90904c-3.72771,1.84838 -8.88914,3.69677 -16.87709,5.93907c-7.98795,2.24231 -12.65781,3.18165 -27.07708,3.93918c-14.41925,0.75753 -32.11561,-0.84844 -37.35898,-1.39386c-5.24337,-0.54543 -22.32527,-4.3028 -29.45297,-6.72691c-7.1277,-2.42412 -17.94214,-6.5451 -22.32527,-8.545c-4.38313,-1.99989 -8.19184,-4.12059 -11.96097,-7.33273c-3.76913,-3.21215 -4.87423,-4.06019 -7.78312,-8.90861c-2.90889,-4.84842 -3.76913,-8.33309 -5.24383,-7.63616c-1.47469,0.69694 0.57349,5.93907 1.55663,8.15108c0.98312,2.21201 2.04818,3.81797 5.24336,7.78746z" id="svg_27" transform="rotate(17.770952224731445 2143.80078125,157.06280517578102) " stroke="null"/>
  <ellipse ry="88.666682" rx="88.666682" id="svg_87" cy="230.666602" cx="960" stroke-opacity="null" stroke-width="1.5" stroke="null" fill="#fcf38d"/>
 </g>
</svg>