<svg width="1920.0000000000002" height="1080" xmlns="http://www.w3.org/2000/svg">
 <!-- Created with Method Draw - http://github.com/duopixel/Method-Draw/ -->

 <g>
  <title>background</title>
  <rect fill="#fff" id="canvas_background" height="1082" width="1922" y="-1" x="-1"/>
  <g display="none" id="canvasGrid">
   <rect fill="url(#gridpattern)" stroke-width="0" y="0" x="0" height="100%" width="100%" id="svg_9"/>
  </g>
 </g>
 <g>
  <title>Layer 1</title>
  <rect id="svg_42" height="1134.686845" width="1984.035282" y="-26.67664" x="-20.017492" stroke-opacity="null" stroke-width="1.5" stroke="null" fill="#24507a"/>
  <ellipse ry="175.333677" rx="267.333857" id="svg_1" cy="137.332555" cx="241.998603" stroke-width="1.5" fill="#7f7f7f"/>
  <ellipse ry="139.333606" rx="146.000286" id="svg_2" cy="91.999132" cx="451.332347" stroke-width="1.5" fill="#7f7f7f"/>
  <ellipse ry="166.000325" rx="215.333755" id="svg_3" cy="129.332539" cx="876.666514" stroke-width="1.5" fill="#e5e5e5"/>
  <ellipse ry="169.333665" rx="239.333802" id="svg_4" cy="165.665954" cx="1029.666831" stroke-width="1.5" fill="#7f7f7f"/>
  <ellipse ry="114.000223" rx="106.000208" id="svg_5" cy="229.332735" cx="1211.333836" stroke-width="1.5" fill="#7f7f7f"/>
  <ellipse ry="111.333551" rx="114.666891" id="svg_6" cy="239.999422" cx="1348.00077" stroke-width="1.5" fill="#7f7f7f"/>
  <path stroke="null" transform="rotate(-12.263904571533203 1188.6975097656243,278.9052429199222) " id="svg_38" d="m1105.695953,275.300194c5.779369,6.753937 18.344912,20.568622 31.729519,28.622279c13.384607,8.053653 31.844556,16.199404 50.503615,19.039384c18.659054,2.83998 41.575013,0.46743 54.042955,-2.202396c12.467942,-2.669827 29.156816,-8.910725 36.187423,-12.69582c7.030607,-3.785096 8.545965,-9.64486 4.847979,-17.416278c-3.697986,-7.771418 -9.941341,-7.281228 -16.111686,-4.764477c-6.170345,2.516751 -7.156104,2.992482 -15.559159,6.382137c-8.403046,3.389656 -13.600028,6.731151 -28.7686,7.876301c-15.168567,1.145155 -27.859762,-1.552733 -37.716264,-3.094718c-9.856498,-1.541985 -21.726123,-6.696971 -29.224215,-10.36146c-7.498097,-3.664489 -16.655567,-11.212973 -21.266465,-14.236185c-4.610903,-3.023202 -8.804736,-7.662706 -12.769734,-12.518446c-3.964993,-4.855749 -5.525904,-10.282069 -8.585952,-17.611349c-3.060057,-7.329285 -3.406351,-9.90811 -13.025909,-8.295119c-9.619562,1.612991 -7.879782,13.892242 -6.331955,18.983037c1.547831,5.09079 6.269084,15.539174 12.048449,22.293111z" stroke-opacity="null" stroke-width="1.5" fill="#4c4c4c"/>
  <ellipse ry="134.000263" rx="228.667115" id="svg_7" cy="186.999308" cx="1553.66785" stroke-width="1.5" fill="#7f7f7f"/>
  <path stroke="null" transform="rotate(-12.263904571533203 1340.6987304687498,272.23852539062517) " id="svg_39" d="m1257.697064,268.633474c5.77937,6.75394 18.34492,20.56863 31.72952,28.62228c13.38461,8.05366 31.84456,16.19941 50.50362,19.03939c18.65905,2.83998 41.57501,0.46743 54.04295,-2.2024c12.46794,-2.66983 29.15682,-8.91072 36.18743,-12.69582c7.0306,-3.7851 8.54596,-9.64486 4.84797,-17.41628c-3.69798,-7.77142 -9.94134,-7.28123 -16.11168,-4.76447c-6.17035,2.51675 -7.15611,2.99248 -15.55916,6.38213c-8.40305,3.38966 -13.60003,6.73115 -28.7686,7.8763c-15.16857,1.14516 -27.85976,-1.55273 -37.71626,-3.09471c-9.8565,-1.54199 -21.72613,-6.69698 -29.22422,-10.36146c-7.4981,-3.66449 -16.65557,-11.21298 -21.26646,-14.23619c-4.61091,-3.0232 -8.80474,-7.6627 -12.76974,-12.51845c-3.96499,-4.85574 -5.5259,-10.28206 -8.58595,-17.61134c-3.06006,-7.32929 -3.40635,-9.90811 -13.02591,-8.29512c-9.61956,1.61299 -7.87978,13.89224 -6.33196,18.98303c1.54784,5.09079 6.26909,15.53918 12.04845,22.29311z" stroke-opacity="null" stroke-width="1.5" fill="#4c4c4c"/>
  <ellipse ry="134.000263" rx="126.000247" id="svg_29" cy="282.999912" cx="1912.336547" stroke-width="1.5" fill="#7f7f7f"/>
  <ellipse ry="134.000263" rx="126.000247" id="svg_8" cy="244.999443" cx="1765.334735" stroke-width="1.5" fill="#7f7f7f"/>
  <ellipse ry="0.666668" id="svg_10" cy="402.666408" cx="1974.668665" stroke-width="1.5" fill="#e5e5e5"/>
  <ellipse ry="104.000204" rx="252.667162" id="svg_11" cy="255.666068" cx="687.999622" stroke-width="1.5" fill="#7f7f7f"/>
  <ellipse ry="77.333485" rx="126.000247" id="svg_12" cy="283.99953" cx="404.665298" stroke-width="1.5" fill="#7f7f7f"/>
  <path stroke="null" transform="rotate(-12.890448570251465 407.35852050781233,234.23818969726577) " id="svg_37" d="m222.237043,226.104306c12.889937,15.238603 40.915327,46.408048 70.767504,64.57915c29.852177,18.171091 71.024075,36.549981 112.640054,42.957699c41.615969,6.407718 92.726267,1.054642 120.533973,-4.969167c27.807706,-6.023808 65.02951,-20.104864 80.710129,-28.645004c15.680619,-8.54014 19.060377,-21.76126 10.812624,-39.295558c-8.247753,-17.534298 -22.172535,-16.428306 -35.934482,-10.749873c-13.761946,5.678432 -15.96052,6.751801 -34.702159,14.399727c-18.741619,7.647927 -30.332638,15.187191 -64.163657,17.770941c-33.831008,2.58376 -62.136643,-3.503361 -84.119959,-6.982473c-21.983306,-3.479112 -48.456564,-15.110072 -65.179832,-23.378093c-16.723278,-8.26802 -37.147518,-25.299323 -47.431372,-32.120458c-10.283864,-6.821114 -19.637525,-17.289016 -28.480803,-28.244802c-8.843268,-10.955807 -12.324625,-23.198965 -19.149563,-39.735689c-6.824958,-16.536734 -7.597309,-22.35522 -29.052159,-18.715901c-21.45486,3.639319 -17.574566,31.344436 -14.122391,42.830565c3.452185,11.486118 13.982168,35.060333 26.872094,50.298936z" stroke-opacity="null" stroke-width="1.5" fill="#4c4c4c"/>
  <path stroke="null" transform="rotate(-12.890448570251465 694.0272216796869,260.90505981445307) " id="svg_36" d="m510.890675,252.921807c12.75173,14.95639 40.47663,45.54859 70.00873,63.38317c29.5321,17.83457 70.26255,35.87309 111.43232,42.16214c41.16976,6.28905 91.73205,1.03511 119.2416,-4.87714c27.50955,-5.91225 64.33226,-19.73253 79.84475,-28.11451c15.51249,-8.38198 18.85601,-21.35825 10.69669,-38.56782c-8.15932,-17.20957 -21.9348,-16.12406 -35.54919,-10.55079c-13.61439,5.57327 -15.78939,6.62676 -34.33008,14.13305c-18.54067,7.50629 -30.00741,14.90593 -63.47569,17.44183c-33.46827,2.53591 -61.47041,-3.43848 -83.21802,-6.85316c-21.7476,-3.41468 -47.93701,-14.83024 -64.48097,-22.94514c-16.54397,-8.1149 -36.74922,-24.83079 -46.92281,-31.5256c-10.1736,-6.69479 -19.42697,-16.96883 -28.17543,-27.72172c-8.74845,-10.75291 -12.19248,-22.76933 -18.94424,-38.9998c-6.75178,-16.23048 -7.51585,-21.94121 -28.74066,-18.36929c-21.22482,3.57192 -17.38613,30.76395 -13.97097,42.03736c3.41517,11.2734 13.83225,34.41103 26.58397,49.36742z" stroke-opacity="null" stroke-width="1.5" fill="#4c4c4c"/>
  <rect id="svg_14" height="201.333728" width="2002.67059" y="-19.334419" x="-21.335246" stroke-width="1.5" fill="#7f7f7f"/>
  <path stroke="null" transform="rotate(-3.7747697830200195 987.3627319335945,227.57148742675818) " id="svg_35" d="m804.226159,219.588233c12.75173,14.95639 40.47663,45.54859 70.00873,63.38317c29.5321,17.83457 70.26255,35.87309 111.43232,42.16214c41.16976,6.28905 91.73205,1.03511 119.2416,-4.87714c27.50955,-5.91225 64.33226,-19.73253 79.84475,-28.11451c15.51249,-8.38198 18.85601,-21.35825 10.69669,-38.56782c-8.15932,-17.20957 -21.9348,-16.12406 -35.54919,-10.55079c-13.61439,5.57327 -15.78939,6.62676 -34.33008,14.13305c-18.54067,7.50629 -30.00741,14.90593 -63.47569,17.44183c-33.46827,2.53591 -61.47041,-3.43848 -83.21802,-6.85316c-21.7476,-3.41468 -47.93701,-14.83024 -64.48097,-22.94514c-16.54397,-8.1149 -36.74922,-24.83079 -46.92281,-31.5256c-10.1736,-6.69479 -19.42697,-16.96883 -28.17543,-27.72172c-8.74845,-10.75291 -12.19248,-22.76933 -18.94424,-38.9998c-6.75178,-16.23048 -7.51585,-21.94121 -28.74066,-18.36929c-21.22482,3.57192 -17.38613,30.76395 -13.97097,42.03736c3.41517,11.2734 13.83225,34.41103 26.58397,49.36742z" stroke-opacity="null" stroke-width="1.5" fill="#4c4c4c"/>
  <path stroke="null" transform="rotate(-0.586915135383606 986.3358154296907,241.6531677246031) " id="svg_28" d="m798.362622,223.986691c7.648777,12.312104 45.322997,38.866356 78.271455,52.40025c32.948469,13.533923 65.381357,25.821464 107.841723,31.64856c42.460356,5.827096 96.478298,3.221101 114.325396,0.213569c17.847088,-3.007541 72.856661,-21.013643 81.976336,-26.370795c9.119634,-5.35717 13.392685,-12.807167 8.483891,-17.999459c-4.908794,-5.192291 -8.949039,-6.323308 -17.872562,-0.590182c-8.923544,5.733116 -21.279198,11.466233 -40.401104,18.421158c-19.121886,6.954925 -30.300813,9.868468 -64.818261,12.218097c-34.517438,2.349638 -76.879734,-2.631586 -89.431529,-4.323321c-12.551806,-1.691744 -53.443213,-13.345954 -70.505796,-20.864784c-17.062593,-7.51883 -42.950669,-20.300851 -53.443182,-26.503903c-10.492524,-6.203033 -19.609982,-12.780807 -28.63269,-22.743857c-9.022698,-9.963069 -11.668147,-12.593441 -18.631562,-27.631723c-6.963436,-15.038291 -10.708983,-22.245653 -19.116811,-19.490438c-8.407839,2.755224 -4.323061,16.480358 -1.969597,23.341322c2.353454,6.860945 6.275537,15.963382 13.924293,28.275505z" stroke-opacity="null" stroke-width="1.5" fill="#333333"/>
  <path stroke="null" transform="rotate(14.78189468383789 1739.3681640625002,312.90539550781295) " id="svg_40" d="m1656.000346,309.455767c5.804876,6.46283 18.425881,19.682077 31.86955,27.388597c13.44368,7.706529 31.985098,15.50118 50.726505,18.21875c18.741397,2.717571 41.758491,0.447283 54.281455,-2.107472c12.522964,-2.554754 29.285496,-8.526648 36.347134,-12.148602c7.061628,-3.621954 8.583675,-9.229145 4.869365,-16.6656c-3.7143,-7.436455 -9.985214,-6.967393 -16.182785,-4.559111c-6.197581,2.408273 -7.187692,2.863498 -15.627826,6.107046c-8.440135,3.243558 -13.66005,6.441023 -28.895563,7.536814c-15.235513,1.095801 -27.982712,-1.485804 -37.882711,-2.961321c-9.899999,-1.475527 -21.822013,-6.408325 -29.353194,-9.914858c-7.531191,-3.506542 -16.729075,-10.729676 -21.360314,-13.622579c-4.631259,-2.892893 -8.843597,-7.332421 -12.826096,-11.978877c-3.982488,-4.646447 -5.550287,-9.838881 -8.623842,-16.852252c-3.073565,-7.013381 -3.421383,-9.481049 -13.083397,-7.937582c-9.662013,1.543467 -7.914555,13.293454 -6.359905,18.16482c1.554671,4.871366 6.296757,14.869407 12.101623,21.332228z" stroke-opacity="null" stroke-width="1.5" fill="#4c4c4c"/>
  <rect id="svg_15" height="173.333673" width="196.000384" y="141.999232" x="1809.335008" stroke-width="1.5" fill="#7f7f7f"/>
  <ellipse ry="175.333677" rx="267.333857" id="svg_16" cy="239.999425" cx="-91.335381" stroke-width="1.5" fill="#7f7f7f"/>
  <path stroke="null" transform="rotate(-43.92781448364258 61.35726928710935,241.57154846191406) " id="svg_34" d="m-121.779288,233.588299c12.75173,14.95639 40.47663,45.54859 70.00873,63.38317c29.5321,17.83457 70.26255,35.87309 111.43232,42.16214c41.16976,6.28905 91.73205,1.03511 119.2416,-4.87714c27.50955,-5.91225 64.33226,-19.73253 79.84475,-28.11451c15.51249,-8.38198 18.85601,-21.35825 10.69669,-38.56782c-8.15932,-17.20957 -21.9348,-16.12406 -35.54919,-10.55079c-13.61439,5.57327 -15.78939,6.62676 -34.33008,14.13305c-18.54067,7.50629 -30.00741,14.90593 -63.47569,17.44183c-33.46827,2.53591 -61.47041,-3.43848 -83.21802,-6.85316c-21.7476,-3.41468 -47.93701,-14.83024 -64.48097,-22.94514c-16.54397,-8.1149 -36.74922,-24.83079 -46.92281,-31.5256c-10.1736,-6.69479 -19.42697,-16.96883 -28.17543,-27.72172c-8.74845,-10.75291 -12.19248,-22.76933 -18.94424,-38.9998c-6.75178,-16.23048 -7.51585,-21.94121 -28.74066,-18.36929c-21.22482,3.57192 -17.38613,30.76395 -13.97097,42.03736c3.41517,11.2734 13.83225,34.41103 26.58397,49.36742z" stroke-opacity="null" stroke-width="1.5" fill="#4c4c4c"/>
  <path id="svg_18" stroke-opacity="null" stroke-width="1.5" stroke="null" fill="#4c4c4c"/>
  <path stroke="null" transform="rotate(-13.619129180908203 713.250854492187,278.1621093749999) " id="svg_13" d="m530.991118,259.095084c7.41629,13.28817 43.94539,41.94756 75.89237,56.55438c31.94699,14.60685 63.39407,27.86851 104.56384,34.15756c41.16976,6.28905 93.54581,3.47646 110.85044,0.2305c17.30462,-3.24597 70.64216,-22.67954 79.48464,-28.46139c8.84244,-5.78187 12.98561,-13.82248 8.22602,-19.4264c-4.75959,-5.60392 -8.67703,-6.8246 -17.32932,-0.63697c-8.65231,6.18762 -20.63241,12.37524 -39.1731,19.88153c-18.54067,7.50629 -29.37981,10.65081 -62.84809,13.18671c-33.46827,2.53591 -74.54295,-2.84021 -86.71323,-4.66606c-12.17029,-1.82586 -51.81879,-14.40398 -68.36275,-22.51888c-16.54397,-8.1149 -41.64517,-21.91024 -51.81876,-28.60505c-10.1736,-6.69479 -19.01393,-13.79403 -27.76239,-24.54692c-8.74845,-10.75291 -11.31349,-13.59181 -18.06525,-29.82228c-6.75178,-16.23048 -10.38348,-24.00922 -18.53575,-21.03558c-8.15228,2.97365 -4.19166,17.78687 -1.90973,25.19175c2.28192,7.40486 6.08479,17.22891 13.50106,30.5171z" stroke-opacity="null" stroke-width="1.5" fill="#333333"/>
  <path stroke="null" transform="rotate(-12.397052764892578 718.6210937500001,299.5627136230472) " id="svg_20" d="m562.07926,288.71851c6.68132,7.52404 36.91851,23.43363 65.69952,31.70432c28.78102,8.27069 49.51022,13.89936 86.60003,17.46035c37.08981,3.56099 80.77527,3.50355 96.365,1.66562c15.58972,-1.83793 56.96244,-12.40604 64.92861,-15.67985c7.96616,-3.27381 16.78891,-7.58147 14.3905,-8.95992c-2.39841,-1.37846 -3.85461,-1.78051 -11.64946,1.72306c-7.79486,3.50356 -18.58773,7.00712 -35.29101,11.25733c-16.70328,4.25022 -26.46825,6.03071 -56.6198,7.46659c-30.15154,1.43588 -67.15569,-1.60819 -78.11989,-2.64202c-10.9642,-1.03384 -46.6835,-8.15583 -61.58795,-12.75065c-14.90445,-4.59483 -37.5181,-12.40603 -46.68348,-16.19677c-9.16539,-3.79073 -17.12964,-7.81046 -25.01111,-13.89897c-7.88148,-6.08852 -10.19232,-7.69596 -16.27498,-16.88599c-6.08267,-9.19003 -7.88149,-15.7951 -10.96517,-14.47409c-3.08367,1.32101 1.19921,11.25732 3.255,15.45011c2.05578,4.19279 4.28287,7.23684 10.96419,14.76088z" stroke-opacity="null" stroke-width="1.5" fill="#191919"/>
  <path stroke="null" transform="rotate(-7.418992519378662 1190.0144042968757,289.54916381835994) " id="svg_31" d="m1111.060709,285.15736c3.19518,3.96949 20.2567,13.03784 34.02053,17.40124c13.76384,4.3634 24.66871,7.46206 42.40603,9.34075c17.73732,1.87869 41.5607,2.5663 49.01611,1.59666c7.45542,-0.96965 26.36465,-4.97848 30.17428,-6.70565c3.80963,-1.72718 12.75636,-6.74568 9.55383,-9.75745c-3.20254,-3.01177 -6.2988,-2.86411 -10.0265,-1.01571c-3.72771,1.84838 -8.88914,3.69677 -16.87709,5.93907c-7.98795,2.24231 -12.65781,3.18165 -27.07708,3.93918c-14.41925,0.75753 -32.11561,-0.84844 -37.35898,-1.39386c-5.24337,-0.54543 -22.32527,-4.3028 -29.45297,-6.72691c-7.1277,-2.42412 -17.94214,-6.5451 -22.32527,-8.545c-4.38313,-1.99989 -8.19184,-4.12059 -11.96097,-7.33273c-3.76913,-3.21215 -4.87423,-4.06019 -7.78312,-8.90861c-2.90889,-4.84842 -2.89283,-9.89972 -7.68674,-6.94583c-4.79391,2.9539 -1.58193,7.003 -0.59879,9.21501c0.98312,2.21201 2.78156,5.93034 5.97674,9.89983z" stroke-opacity="null" stroke-width="1.5" fill="#333333"/>
  <path stroke="null" transform="rotate(3.2284388542175293 977.6243896484373,258.56225585937455) " id="svg_21" d="m808.40414,247.31856c7.22244,7.80122 39.90855,24.2969 71.02054,32.87227c31.112,8.57538 53.52007,14.4114 93.61379,18.10358c40.09373,3.69217 87.31729,3.63261 104.16964,1.72698c16.85233,-1.90564 61.57584,-12.86307 70.1872,-16.25748c8.61134,-3.39442 18.14864,-7.86077 15.55599,-9.29c-2.59266,-1.42924 -4.1668,-1.8461 -12.59296,1.78654c-8.42616,3.63263 -20.09315,7.26525 -38.14924,11.67204c-18.05608,4.40679 -28.61192,6.25287 -61.20545,7.74165c-32.59352,1.48877 -72.59465,-1.66744 -84.44685,-2.73935c-11.85219,-1.07193 -50.46441,-8.45628 -66.57597,-13.22037c-16.11157,-4.7641 -40.55671,-12.86306 -50.46439,-16.79345c-9.9077,-3.93037 -18.51698,-8.09818 -27.03677,-14.41099c-8.5198,-6.31281 -11.0178,-7.97947 -17.5931,-17.50805c-6.5753,-9.52858 -8.51981,-16.37698 -11.85324,-15.0073c-3.33342,1.36967 1.29633,11.67203 3.51862,16.01927c2.22228,4.34725 4.62974,7.50344 11.85219,15.30466z" stroke-opacity="null" stroke-width="1.5" fill="#191919"/>
  <path stroke="null" transform="rotate(-6.82213020324707 400.25051879882824,255.16207885742168) " id="svg_17" d="m217.990802,236.095063c7.41629,13.28817 43.94539,41.94756 75.89237,56.55438c31.94699,14.60685 63.39407,27.86851 104.56384,34.15756c41.16976,6.28905 93.54581,3.47646 110.85044,0.2305c17.30462,-3.24597 70.64216,-22.67954 79.48464,-28.46139c8.84244,-5.78187 12.98561,-13.82248 8.22602,-19.4264c-4.75959,-5.60392 -8.67703,-6.8246 -17.32932,-0.63697c-8.65231,6.18762 -20.63241,12.37524 -39.1731,19.88153c-18.54067,7.50629 -29.37981,10.65081 -62.84809,13.18671c-33.46827,2.53591 -74.54295,-2.84021 -86.71323,-4.66606c-12.17029,-1.82586 -51.81879,-14.40398 -68.36275,-22.51888c-16.54397,-8.1149 -41.64517,-21.91024 -51.81876,-28.60505c-10.1736,-6.69479 -19.01393,-13.79403 -27.76239,-24.54692c-8.74845,-10.75291 -11.31349,-13.59181 -18.06525,-29.82228c-6.75178,-16.23048 -10.38348,-24.00922 -18.53575,-21.03558c-8.15228,2.97365 -4.19166,17.78687 -1.90973,25.19175c2.28192,7.40486 6.08479,17.22891 13.50106,30.5171z" stroke-opacity="null" stroke-width="1.5" fill="#333333"/>
  <path stroke="null" transform="rotate(-4.380867958068848 402.11724853515534,276.56249999999966) " id="svg_22" d="m245.48134,265.17664c6.68534,7.89984 36.94069,24.60407 65.73899,33.28785c28.79831,8.68379 49.53996,14.5936 86.65205,18.33245c37.11209,3.73885 80.82379,3.67854 96.42288,1.74881c15.59909,-1.92973 56.99666,-13.02569 64.96762,-16.46301c7.97094,-3.43733 16.79899,-7.96015 14.39914,-9.40744c-2.39985,-1.44731 -3.85693,-1.86944 -11.65646,1.80912c-7.79954,3.67855 -18.59889,7.3571 -35.31221,11.8196c-16.71331,4.4625 -26.48415,6.33192 -56.65381,7.83952c-30.16965,1.5076 -67.19603,-1.68851 -78.16681,-2.77398c-10.97079,-1.08548 -46.71155,-8.56319 -61.62495,-13.38751c-14.9134,-4.82432 -37.54064,-13.02567 -46.71152,-17.00575c-9.1709,-3.98006 -17.13993,-8.20057 -25.02614,-14.59318c-7.88621,-6.39262 -10.19844,-8.08035 -16.28475,-17.72939c-6.08633,-9.64905 -7.88623,-16.58402 -10.97176,-15.19703c-3.08552,1.38699 1.19993,11.81959 3.25695,16.2218c2.05702,4.4022 4.28545,7.59829 10.97078,15.49814z" stroke-opacity="null" stroke-width="1.5" fill="#191919"/>
  <path stroke="null" transform="rotate(19.824222564697266 1516.5114746093752,147.36408996581966) " id="svg_41" d="m1328.788024,258.940165c10.13021,9.81828 44.7348,39.21821 59.48846,42.97888c14.75366,3.76068 44.09542,10.18217 58.6913,12.28533c14.59589,2.10317 73.14536,-2.4269 88.73509,-4.26483c15.58972,-1.83793 65.11781,-16.40647 73.21286,-19.72932c8.09504,-3.32286 44.89454,-22.29225 62.07353,-35.61928c17.17899,-13.32703 39.32588,-35.36793 48.27964,-46.67235c8.95376,-11.30442 31.06352,-54.96596 35.77812,-70.59476c4.7146,-15.62881 7.12231,-47.79323 6.84708,-61.32248c-0.27523,-13.52925 -5.89041,-35.30295 -10.17107,-48.48576c-4.28065,-13.18281 -8.29133,-23.41448 -10.39289,-30.37228c-2.10157,-6.95781 -11.08983,-21.25122 -29.25228,-16.04936c-18.16246,5.20187 -13.70735,21.27273 -12.62817,27.95971c2.15835,13.37397 7.05599,32.93214 9.45455,42.58227c2.39856,9.65012 3.37778,25.65662 3.04147,41.34011c-0.33632,15.68348 -4.54458,31.28888 -8.28537,40.745c-3.74079,9.45612 -16.7632,33.7886 -30.08332,47.09595c-13.32013,13.30734 -25.98053,24.6342 -43.14775,37.62923c-17.16721,12.99504 -33.82648,23.1976 -41.62133,26.70117c-7.79486,3.50356 -18.16111,7.20766 -34.86439,11.45787c-16.70328,4.25022 -30.97137,7.29976 -56.50675,7.78017c-25.53538,0.48041 -48.92796,-2.15568 -62.02527,-4.19218c-13.0973,-2.03649 -37.49497,-9.69667 -48.93729,-15.0081c-11.44232,-5.31143 -25.6552,-23.23772 -32.82805,-31.82154c-7.17284,-8.58382 -12.85304,-24.94262 -21.89444,-44.07748c-9.04139,-19.13486 -9.39799,-27.11603 -13.57365,-35.93057c-4.17566,-8.81455 -13.39319,-25.67826 -33.08372,-17.83899c-19.69054,7.83927 -13.84125,28.01801 -10.54738,37.61092c3.29387,9.59291 9.99354,27.27984 17.89625,43.90442c7.90272,16.62457 26.21455,52.08998 36.34477,61.90825z" stroke-opacity="null" stroke-width="1.5" fill="#4c4c4c"/>
  <path stroke="null" transform="rotate(19.824222564697266 1513.78173828125,160.21194458007804) " id="svg_33" d="m1339.988219,259.13292c10.13021,9.81828 40.49562,27.45905 55.24928,31.21972c14.75366,3.76068 42.00605,8.8094 56.60193,10.91256c14.59589,2.10317 58.39444,2.35931 73.98417,0.52138c15.58972,-1.83793 56.78245,-14.46456 64.8775,-17.78741c8.09504,-3.32286 36.97498,-16.24828 54.15397,-29.57531c17.17899,-13.32703 38.08435,-34.38886 45.74201,-40.44259c7.65766,-6.05372 34.62384,-50.29268 39.47026,-61.82736c2.42321,-5.76734 7.02597,-23.50015 9.26523,-39.87142c1.11964,-8.18565 -0.28435,-38.91843 -0.98787,-48.07584c-0.70352,-9.15741 -3.70267,-29.85214 -5.80423,-36.80994c-2.10157,-6.95781 -5.64746,-12.0518 -12.95315,-9.16931c-7.30569,2.88248 -8.16173,8.64363 -7.08255,15.33061c2.15835,13.37397 6.30106,27.88934 6.40235,34.11567c0.10128,6.22633 3.13742,35.31019 0.9742,47.40031c-2.16322,12.09012 -5.84655,23.25432 -9.58734,32.71044c-3.74079,9.45612 -20.75026,38.9464 -34.07038,52.25375c-13.32013,13.30734 -25.98053,24.6342 -43.14775,37.62923c-17.16721,12.99504 -33.82648,23.1976 -41.62133,26.70117c-7.79486,3.50356 -18.16111,7.20766 -34.86439,11.45787c-16.70328,4.25022 -30.97137,7.29976 -56.50675,7.78017c-25.53538,0.48041 -48.92796,-2.15568 -62.02527,-4.19218c-13.0973,-2.03649 -30.62527,-6.85825 -45.52972,-11.45307c-14.90445,-4.59483 -30.583,-17.74078 -39.33651,-26.28627c-8.75351,-8.54548 -23.48567,-26.42451 -32.52707,-45.55937c-9.04139,-19.13486 -10.67786,-27.71763 -13.15785,-31.82851c-2.47999,-4.11088 -3.56418,-11.68227 -12.60586,-8.2134c-9.04167,3.46885 -7.50822,8.72711 -5.74045,14.08672c1.76777,5.35961 5.7927,17.10135 13.69541,33.72593c7.90272,16.62457 27.00194,45.42818 37.13216,55.24645z" stroke-opacity="null" stroke-width="1.5" fill="#333333"/>
  <path stroke="null" transform="rotate(-7.418992519378662 1335.0141601562502,278.54919433593693) " id="svg_30" d="m1256.060448,274.157383c3.19518,3.96949 20.2567,13.03784 34.02053,17.40124c13.76384,4.3634 24.66871,7.46206 42.40603,9.34075c17.73732,1.87869 41.5607,2.5663 49.01611,1.59666c7.45542,-0.96965 26.36465,-4.97848 30.17428,-6.70565c3.80963,-1.72718 12.75636,-6.74568 9.55383,-9.75745c-3.20254,-3.01177 -6.2988,-2.86411 -10.0265,-1.01571c-3.72771,1.84838 -8.88914,3.69677 -16.87709,5.93907c-7.98795,2.24231 -12.65781,3.18165 -27.07708,3.93918c-14.41925,0.75753 -32.11561,-0.84844 -37.35898,-1.39386c-5.24337,-0.54543 -22.32527,-4.3028 -29.45297,-6.72691c-7.1277,-2.42412 -17.94214,-6.5451 -22.32527,-8.545c-4.38313,-1.99989 -8.19184,-4.12059 -11.96097,-7.33273c-3.76913,-3.21215 -4.87423,-4.06019 -7.78312,-8.90861c-2.90889,-4.84842 -2.89283,-9.89972 -7.68674,-6.94583c-4.79391,2.9539 -1.58193,7.003 -0.59879,9.21501c0.98312,2.21201 2.78156,5.93034 5.97674,9.89983z" stroke-opacity="null" stroke-width="1.5" fill="#333333"/>
  <path stroke="null" transform="rotate(19.824222564697266 1514.25732421875,161.7213592529296) " id="svg_24" d="m1349.189071,258.727047c10.13021,9.81828 41.35968,23.95857 56.11334,27.71924c14.75366,3.76068 38.192,8.05838 52.78788,10.16154c14.59589,2.10317 52.69891,2.28656 68.28864,0.44863c15.58972,-1.83793 55.55369,-12.9586 63.64874,-16.28145c8.09504,-3.32286 30.56481,-15.35474 47.7438,-28.68177c17.17899,-13.32703 36.7681,-32.1427 44.42576,-38.19643c7.65766,-6.05372 30.78815,-43.24061 35.63457,-54.77529c2.42321,-5.76734 9.08242,-25.65882 11.32168,-42.03009c1.11964,-8.18564 2.68007,-23.48945 2.35237,-40.77605c-0.16385,-8.6433 -1.97063,-27.99622 -3.13146,-35.29316c-1.16084,-7.29694 -2.18727,-17.19684 -6.47022,-15.75838c-4.28295,1.43847 -0.16892,12.1402 0.91026,18.82718c2.15835,13.37397 2.82614,28.07905 2.92743,34.30538c0.10128,6.22633 -1.64293,33.84452 -3.80615,45.93464c-2.16322,12.09012 -5.84655,23.25432 -9.58734,32.71044c-3.74079,9.45612 -20.75026,38.9464 -34.07038,52.25375c-13.32013,13.30734 -25.98053,24.6342 -43.14775,37.62923c-17.16721,12.99504 -33.82648,23.1976 -41.62133,26.70117c-7.79486,3.50356 -18.16111,7.20766 -34.86439,11.45787c-16.70328,4.25022 -30.97137,7.29976 -56.50675,7.78017c-25.53538,0.48041 -48.92796,-2.15568 -62.02527,-4.19218c-13.0973,-2.03649 -30.62527,-6.85825 -45.52972,-11.45307c-14.90445,-4.59483 -33.15357,-15.04243 -41.90708,-23.58792c-8.75351,-8.54548 -24.6633,-22.811 -33.7047,-41.94586c-9.04139,-19.13486 -12.97514,-31.14143 -15.45513,-35.25231c-2.47999,-4.11088 -1.61686,-5.29766 -4.70054,-3.97665c-3.08367,1.32101 -1.7655,2.05056 0.00227,7.41017c1.76777,5.35961 6.41985,16.87527 14.32256,33.49985c7.90272,16.62457 25.91869,35.54308 36.04891,45.36135z" stroke-opacity="null" stroke-width="1.5" fill="#191919"/>
  <path stroke="null" transform="rotate(-7.418992519378662 1190.1269531249993,290.72918701171744) " id="svg_25" d="m1115.26459,285.008042c3.19519,3.96949 17.6554,12.36297 31.41924,16.72638c13.76384,4.3634 23.67709,7.33294 41.41441,9.21162c17.73732,1.87869 38.62885,1.84838 46.08427,0.87874c7.45541,-0.96964 27.24093,-6.5451 31.05056,-8.27228c3.80963,-1.72718 8.0289,-3.99979 6.88192,-4.72702c-1.14699,-0.72724 -1.84338,-0.93935 -5.57108,0.90904c-3.72771,1.84839 -8.88914,3.69677 -16.87709,5.93908c-7.98794,2.2423 -12.65781,3.18164 -27.07707,3.93917c-14.41926,0.75754 -32.11561,-0.84843 -37.35898,-1.39386c-5.24337,-0.54542 -22.32528,-4.3028 -29.45298,-6.72691c-7.1277,-2.42411 -17.94214,-6.5451 -22.32526,-8.54499c-4.38313,-1.99989 -8.19185,-4.1206 -11.96097,-7.33274c-3.76913,-3.21214 -4.87424,-4.06019 -7.78312,-8.90861c-2.9089,-4.84842 -3.76914,-8.33308 -5.24384,-7.63615c-1.47469,0.69693 0.5735,5.93907 1.55663,8.15108c0.98313,2.212 2.04818,3.81796 5.24336,7.78745z" stroke-opacity="null" stroke-width="1.5" fill="#191919"/>
  <path stroke="null" transform="rotate(-7.418992519378662 1333.128784179687,279.0623779296881) " id="svg_26" d="m1258.26636,273.34125c3.19518,3.96949 17.6554,12.36297 31.41923,16.72637c13.76384,4.3634 23.67709,7.33294 41.41441,9.21163c17.73732,1.87869 38.62886,1.84838 46.08427,0.87874c7.45542,-0.96965 27.24094,-6.54511 31.05057,-8.27228c3.80963,-1.72718 8.0289,-3.99979 6.88191,-4.72702c-1.14698,-0.72724 -1.84337,-0.93936 -5.57107,0.90904c-3.72771,1.84838 -8.88914,3.69677 -16.87709,5.93907c-7.98795,2.24231 -12.65781,3.18165 -27.07708,3.93918c-14.41925,0.75753 -32.11561,-0.84844 -37.35898,-1.39386c-5.24337,-0.54543 -22.32527,-4.3028 -29.45297,-6.72691c-7.1277,-2.42412 -17.94214,-6.5451 -22.32527,-8.545c-4.38313,-1.99989 -8.19184,-4.12059 -11.96097,-7.33273c-3.76913,-3.21215 -4.87423,-4.06019 -7.78312,-8.90861c-2.90889,-4.84842 -3.76913,-8.33309 -5.24383,-7.63616c-1.47469,0.69694 0.57349,5.93907 1.55663,8.15108c0.98312,2.21201 2.04818,3.81797 5.24336,7.78746z" stroke-opacity="null" stroke-width="1.5" fill="#191919"/>
  <path stroke="null" transform="rotate(17.7925968170166 1738.6801757812495,317.215789794922) " id="svg_32" d="m1659.726393,312.823976c3.19518,3.96949 20.2567,13.03784 34.02053,17.40124c13.76384,4.3634 24.66871,7.46206 42.40603,9.34075c17.73732,1.87869 41.5607,2.5663 49.01611,1.59666c7.45542,-0.96965 26.36465,-4.97848 30.17428,-6.70565c3.80963,-1.72718 12.75636,-6.74568 9.55383,-9.75745c-3.20254,-3.01177 -6.2988,-2.86411 -10.0265,-1.01571c-3.72771,1.84838 -8.88914,3.69677 -16.87709,5.93907c-7.98795,2.24231 -12.65781,3.18165 -27.07708,3.93918c-14.41925,0.75753 -32.11561,-0.84844 -37.35898,-1.39386c-5.24337,-0.54543 -22.32527,-4.3028 -29.45297,-6.72691c-7.1277,-2.42412 -17.94214,-6.5451 -22.32527,-8.545c-4.38313,-1.99989 -8.19184,-4.12059 -11.96097,-7.33273c-3.76913,-3.21215 -4.87423,-4.06019 -7.78312,-8.90861c-2.90889,-4.84842 -2.89283,-9.89972 -7.68674,-6.94583c-4.79391,2.9539 -1.58193,7.003 -0.59879,9.21501c0.98312,2.21201 2.78156,5.93034 5.97674,9.89983z" stroke-opacity="null" stroke-width="1.5" fill="#333333"/>
  <path stroke="null" transform="rotate(17.770952224731445 1737.1337890624998,317.0628662109382) " id="svg_27" d="m1662.27134,311.34172c3.19518,3.96949 17.6554,12.36297 31.41923,16.72637c13.76384,4.3634 23.67709,7.33294 41.41441,9.21163c17.73732,1.87869 38.62886,1.84838 46.08427,0.87874c7.45542,-0.96965 27.24094,-6.54511 31.05057,-8.27228c3.80963,-1.72718 8.0289,-3.99979 6.88191,-4.72702c-1.14698,-0.72724 -1.84337,-0.93936 -5.57107,0.90904c-3.72771,1.84838 -8.88914,3.69677 -16.87709,5.93907c-7.98795,2.24231 -12.65781,3.18165 -27.07708,3.93918c-14.41925,0.75753 -32.11561,-0.84844 -37.35898,-1.39386c-5.24337,-0.54543 -22.32527,-4.3028 -29.45297,-6.72691c-7.1277,-2.42412 -17.94214,-6.5451 -22.32527,-8.545c-4.38313,-1.99989 -8.19184,-4.12059 -11.96097,-7.33273c-3.76913,-3.21215 -4.87423,-4.06019 -7.78312,-8.90861c-2.90889,-4.84842 -3.76913,-8.33309 -5.24383,-7.63616c-1.47469,0.69694 0.57349,5.93907 1.55663,8.15108c0.98312,2.21201 2.04818,3.81797 5.24336,7.78746z" stroke-opacity="null" stroke-width="1.5" fill="#191919"/>
  <path stroke="null" transform="rotate(-38.572505950927734 48.250167846679766,257.1620788574219) " id="svg_19" d="m-134.009544,238.095057c7.41629,13.28817 43.94539,41.94756 75.89237,56.55438c31.94699,14.60685 63.39407,27.86851 104.56384,34.15756c41.16976,6.28905 93.54581,3.47646 110.85044,0.2305c17.30462,-3.24597 70.64216,-22.67954 79.48464,-28.46139c8.84244,-5.78187 12.98561,-13.82248 8.22602,-19.4264c-4.75959,-5.60392 -8.67703,-6.8246 -17.32932,-0.63697c-8.65231,6.18762 -20.63241,12.37524 -39.1731,19.88153c-18.54067,7.50629 -29.37981,10.65081 -62.84809,13.18671c-33.46827,2.53591 -74.54295,-2.84021 -86.71323,-4.66606c-12.17029,-1.82586 -51.81879,-14.40398 -68.36275,-22.51888c-16.54397,-8.1149 -41.64517,-21.91024 -51.81876,-28.60505c-10.1736,-6.69479 -19.01393,-13.79403 -27.76239,-24.54692c-8.74845,-10.75291 -11.31349,-13.59181 -18.06525,-29.82228c-6.75178,-16.23048 -10.38348,-24.00922 -18.53575,-21.03558c-8.15228,2.97365 -4.19166,17.78687 -1.90973,25.19175c2.28192,7.40486 6.08479,17.22891 13.50106,30.5171z" stroke-opacity="null" stroke-width="1.5" fill="#333333"/>
  <path stroke="null" transform="rotate(-43.36936950683594 81.6169052124024,261.0624694824219) " id="svg_23" d="m-75.438353,249.53543c6.703239,7.997803 37.039592,24.909176 65.914994,33.70064c28.875412,8.791474 49.672594,14.77457 86.884045,18.559784c37.211451,3.785214 81.040181,3.724156 96.681035,1.770496c15.640854,-1.95366 57.149258,-13.187217 65.141559,-16.667162c7.992281,-3.479955 16.843966,-8.058861 14.437691,-9.524098c-2.406275,-1.465258 -3.867256,-1.892622 -11.687668,1.831554c-7.820422,3.724166 -18.648685,7.448333 -35.406752,11.96617c-16.758057,4.517838 -26.555057,6.41044 -56.80549,7.936735c-30.250424,1.526295 -67.375935,-1.709449 -78.376088,-2.808379c-11.000162,-1.098941 -46.836612,-8.669379 -61.78994,-13.553524c-14.953328,-4.884145 -37.641148,-13.187196 -46.836582,-17.216632c-9.195453,-4.029415 -17.185819,-8.302262 -25.093143,-14.774145c-7.907324,-6.471892 -10.225745,-8.180551 -16.32835,-17.949246c-6.102625,-9.768704 -7.907344,-16.789672 -11.001135,-15.385483c-3.093781,1.40419 1.203143,11.96616 3.26567,16.42296c2.062527,4.45679 4.296924,7.692514 11.000152,15.690327z" stroke-opacity="null" stroke-width="1.5" fill="#191919"/>
  <ellipse stroke="null" ry="49.500003" rx="50.000003" id="svg_43" cy="418.499992" cx="1241.000091" stroke-opacity="null" stroke-width="1.5" fill="#e5e5e5"/>
  <ellipse stroke="null" transform="rotate(-1.405637502670288 1215.7536621093752,428.9569702148458) " ry="52.953949" rx="53.000003" id="svg_44" cy="428.956964" cx="1215.753642" stroke-width="1.5" fill="#24507a"/>
 </g>
</svg>