<svg width="1920.0000000000002" height="1080" xmlns="http://www.w3.org/2000/svg">
 <!-- Created with Method Draw - http://github.com/duopixel/Method-Draw/ -->

 <g>
  <title>background</title>
  <rect x="-1" y="-1" width="2562.000055" height="1442.000031" id="canvas_background" fill="#fff"/>
  <g id="canvasGrid" display="none">
   <rect id="svg_9" width="100%" height="100%" x="0" y="0" stroke-width="0" fill="url(#gridpattern)"/>
  </g>
 </g>
 <g>
  <title>Layer 1</title>
  <rect fill="#5e99d1" stroke="null" stroke-width="1.5" stroke-opacity="null" x="-21.350815" y="-23.343331" width="1984.035282" height="1134.686845" id="svg_42"/>
  <ellipse fill="#e5e5e5" stroke-width="1.5" cx="241.998603" cy="137.332555" id="svg_1" rx="267.333857" ry="175.333677"/>
  <ellipse fill="#e5e5e5" stroke-width="1.5" cx="451.332347" cy="91.999132" id="svg_2" rx="146.000286" ry="139.333606"/>
  <ellipse fill="#e5e5e5" stroke-width="1.5" cx="876.666514" cy="129.332539" id="svg_3" rx="215.333755" ry="166.000325"/>
  <ellipse fill="#e5e5e5" stroke-width="1.5" cx="1029.666831" cy="165.665954" id="svg_4" rx="239.333802" ry="169.333665"/>
  <ellipse fill="#e5e5e5" stroke-width="1.5" cx="1211.333836" cy="229.332735" id="svg_5" rx="106.000208" ry="114.000223"/>
  <ellipse fill="#e5e5e5" stroke-width="1.5" cx="1348.00077" cy="239.999422" id="svg_6" rx="114.666891" ry="111.333551"/>
  <path fill="#cccccc" stroke-width="1.5" stroke-opacity="null" d="m1105.695953,275.300194c5.779369,6.753937 18.344912,20.568622 31.729519,28.622279c13.384607,8.053653 31.844556,16.199404 50.503615,19.039384c18.659054,2.83998 41.575013,0.46743 54.042955,-2.202396c12.467942,-2.669827 29.156816,-8.910725 36.187423,-12.69582c7.030607,-3.785096 8.545965,-9.64486 4.847979,-17.416278c-3.697986,-7.771418 -9.941341,-7.281228 -16.111686,-4.764477c-6.170345,2.516751 -7.156104,2.992482 -15.559159,6.382137c-8.403046,3.389656 -13.600028,6.731151 -28.7686,7.876301c-15.168567,1.145155 -27.859762,-1.552733 -37.716264,-3.094718c-9.856498,-1.541985 -21.726123,-6.696971 -29.224215,-10.36146c-7.498097,-3.664489 -16.655567,-11.212973 -21.266465,-14.236185c-4.610903,-3.023202 -8.804736,-7.662706 -12.769734,-12.518446c-3.964993,-4.855749 -5.525904,-10.282069 -8.585952,-17.611349c-3.060057,-7.329285 -3.406351,-9.90811 -13.025909,-8.295119c-9.619562,1.612991 -7.879782,13.892242 -6.331955,18.983037c1.547831,5.09079 6.269084,15.539174 12.048449,22.293111l-0.000001,-0.000001z" id="svg_38" transform="rotate(-12.263904571533203 1188.697387695312,278.9052124023434) " stroke="null"/>
  <ellipse fill="#e5e5e5" stroke-width="1.5" cx="1553.66785" cy="186.999308" id="svg_7" rx="228.667115" ry="134.000263"/>
  <path fill="#cccccc" stroke-width="1.5" stroke-opacity="null" d="m1257.697064,268.633474c5.77937,6.75394 18.34492,20.56863 31.72952,28.62228c13.38461,8.05366 31.84456,16.19941 50.50362,19.03939c18.65905,2.83998 41.57501,0.46743 54.04295,-2.2024c12.46794,-2.66983 29.15682,-8.91072 36.18743,-12.69582c7.0306,-3.7851 8.54596,-9.64486 4.84797,-17.41628c-3.69798,-7.77142 -9.94134,-7.28123 -16.11168,-4.76447c-6.17035,2.51675 -7.15611,2.99248 -15.55916,6.38213c-8.40305,3.38966 -13.60003,6.73115 -28.7686,7.8763c-15.16857,1.14516 -27.85976,-1.55273 -37.71626,-3.09471c-9.8565,-1.54199 -21.72613,-6.69698 -29.22422,-10.36146c-7.4981,-3.66449 -16.65557,-11.21298 -21.26646,-14.23619c-4.61091,-3.0232 -8.80474,-7.6627 -12.76974,-12.51845c-3.96499,-4.85574 -5.5259,-10.28206 -8.58595,-17.61134c-3.06006,-7.32929 -3.40635,-9.90811 -13.02591,-8.29512c-9.61956,1.61299 -7.87978,13.89224 -6.33196,18.98303c1.54784,5.09079 6.26909,15.53918 12.04845,22.29311z" id="svg_39" transform="rotate(-12.263904571533203 1340.6984863281252,272.2384948730471) " stroke="null"/>
  <ellipse fill="#e5e5e5" stroke-width="1.5" cx="1912.336547" cy="282.999912" id="svg_29" rx="126.000247" ry="134.000263"/>
  <ellipse fill="#e5e5e5" stroke-width="1.5" cx="1765.334735" cy="244.999443" id="svg_8" rx="126.000247" ry="134.000263"/>
  <ellipse fill="#e5e5e5" stroke-width="1.5" cx="1974.668665" cy="402.666408" id="svg_10" ry="0.666668"/>
  <ellipse fill="#e5e5e5" stroke-width="1.5" cx="687.999622" cy="255.666068" id="svg_11" rx="252.667162" ry="104.000204"/>
  <ellipse fill="#e5e5e5" stroke-width="1.5" cx="404.665298" cy="283.99953" id="svg_12" rx="126.000247" ry="77.333485"/>
  <path fill="#cccccc" stroke-width="1.5" stroke-opacity="null" d="m222.237043,226.104306c12.889937,15.238603 40.915327,46.408048 70.767504,64.57915c29.852177,18.171091 71.024075,36.549981 112.640054,42.957699c41.615969,6.407718 92.726267,1.054642 120.533973,-4.969167c27.807706,-6.023808 65.02951,-20.104864 80.710129,-28.645004c15.680619,-8.54014 19.060377,-21.76126 10.812624,-39.295558c-8.247753,-17.534298 -22.172535,-16.428306 -35.934482,-10.749873c-13.761946,5.678432 -15.96052,6.751801 -34.702159,14.399727c-18.741619,7.647927 -30.332638,15.187191 -64.163657,17.770941c-33.831008,2.58376 -62.136643,-3.503361 -84.119959,-6.982473c-21.983306,-3.479112 -48.456564,-15.110072 -65.179832,-23.378093c-16.723278,-8.26802 -37.147518,-25.299323 -47.431372,-32.120458c-10.283864,-6.821114 -19.637525,-17.289016 -28.480803,-28.244802c-8.843268,-10.955807 -12.324625,-23.198965 -19.149563,-39.735689c-6.824958,-16.536734 -7.597309,-22.35522 -29.052159,-18.715901c-21.45486,3.639319 -17.574566,31.344436 -14.122391,42.830565c3.452185,11.486118 13.982168,35.060333 26.872094,50.298936l-0.000001,0z" id="svg_37" transform="rotate(-12.890448570251465 407.3584899902346,234.23820495605474) " stroke="null"/>
  <path fill="#cccccc" stroke-width="1.5" stroke-opacity="null" d="m510.890675,252.921807c12.75173,14.95639 40.47663,45.54859 70.00873,63.38317c29.5321,17.83457 70.26255,35.87309 111.43232,42.16214c41.16976,6.28905 91.73205,1.03511 119.2416,-4.87714c27.50955,-5.91225 64.33226,-19.73253 79.84475,-28.11451c15.51249,-8.38198 18.85601,-21.35825 10.69669,-38.56782c-8.15932,-17.20957 -21.9348,-16.12406 -35.54919,-10.55079c-13.61439,5.57327 -15.78939,6.62676 -34.33008,14.13305c-18.54067,7.50629 -30.00741,14.90593 -63.47569,17.44183c-33.46827,2.53591 -61.47041,-3.43848 -83.21802,-6.85316c-21.7476,-3.41468 -47.93701,-14.83024 -64.48097,-22.94514c-16.54397,-8.1149 -36.74922,-24.83079 -46.92281,-31.5256c-10.1736,-6.69479 -19.42697,-16.96883 -28.17543,-27.72172c-8.74845,-10.75291 -12.19248,-22.76933 -18.94424,-38.9998c-6.75178,-16.23048 -7.51585,-21.94121 -28.74066,-18.36929c-21.22482,3.57192 -17.38613,30.76395 -13.97097,42.03736c3.41517,11.2734 13.83225,34.41103 26.58397,49.36742z" id="svg_36" transform="rotate(-12.890448570251465 694.0272216796869,260.90505981445307) " stroke="null"/>
  <rect fill="#e5e5e5" stroke-width="1.5" x="-21.335246" y="-19.334419" width="2002.67059" height="201.333728" id="svg_14"/>
  <path fill="#cccccc" stroke-width="1.5" stroke-opacity="null" d="m804.226159,219.588233c12.75173,14.95639 40.47663,45.54859 70.00873,63.38317c29.5321,17.83457 70.26255,35.87309 111.43232,42.16214c41.16976,6.28905 91.73205,1.03511 119.2416,-4.87714c27.50955,-5.91225 64.33226,-19.73253 79.84475,-28.11451c15.51249,-8.38198 18.85601,-21.35825 10.69669,-38.56782c-8.15932,-17.20957 -21.9348,-16.12406 -35.54919,-10.55079c-13.61439,5.57327 -15.78939,6.62676 -34.33008,14.13305c-18.54067,7.50629 -30.00741,14.90593 -63.47569,17.44183c-33.46827,2.53591 -61.47041,-3.43848 -83.21802,-6.85316c-21.7476,-3.41468 -47.93701,-14.83024 -64.48097,-22.94514c-16.54397,-8.1149 -36.74922,-24.83079 -46.92281,-31.5256c-10.1736,-6.69479 -19.42697,-16.96883 -28.17543,-27.72172c-8.74845,-10.75291 -12.19248,-22.76933 -18.94424,-38.9998c-6.75178,-16.23048 -7.51585,-21.94121 -28.74066,-18.36929c-21.22482,3.57192 -17.38613,30.76395 -13.97097,42.03736c3.41517,11.2734 13.83225,34.41103 26.58397,49.36742z" id="svg_35" transform="rotate(-3.7747697830200195 987.3627319335945,227.57150268554622) " stroke="null"/>
  <path fill="#b2b2b2" stroke-width="1.5" stroke-opacity="null" d="m798.362622,223.986691c7.648777,12.312104 45.322997,38.866356 78.271455,52.40025c32.948469,13.533923 65.381357,25.821464 107.841723,31.64856c42.460356,5.827096 96.478298,3.221101 114.325396,0.213569c17.847088,-3.007541 72.856661,-21.013643 81.976336,-26.370795c9.119634,-5.35717 13.392685,-12.807167 8.483891,-17.999459c-4.908794,-5.192291 -8.949039,-6.323308 -17.872562,-0.590182c-8.923544,5.733116 -21.279198,11.466233 -40.401104,18.421158c-19.121886,6.954925 -30.300813,9.868468 -64.818261,12.218097c-34.517438,2.349638 -76.879734,-2.631586 -89.431529,-4.323321c-12.551806,-1.691744 -53.443213,-13.345954 -70.505796,-20.864784c-17.062593,-7.51883 -42.950669,-20.300851 -53.443182,-26.503903c-10.492524,-6.203033 -19.609982,-12.780807 -28.63269,-22.743857c-9.022698,-9.963069 -11.668147,-12.593441 -18.631562,-27.631723c-6.963436,-15.038291 -10.708983,-22.245653 -19.116811,-19.490438c-8.407839,2.755224 -4.323061,16.480358 -1.969597,23.341322c2.353454,6.860945 6.275537,15.963382 13.924293,28.275505l0,0.000001z" id="svg_28" transform="rotate(-0.586915135383606 986.3358764648473,241.6531829833941) " stroke="null"/>
  <path fill="#cccccc" stroke-width="1.5" stroke-opacity="null" d="m1656.000346,309.455767c5.804876,6.46283 18.425881,19.682077 31.86955,27.388597c13.44368,7.706529 31.985098,15.50118 50.726505,18.21875c18.741397,2.717571 41.758491,0.447283 54.281455,-2.107472c12.522964,-2.554754 29.285496,-8.526648 36.347134,-12.148602c7.061628,-3.621954 8.583675,-9.229145 4.869365,-16.6656c-3.7143,-7.436455 -9.985214,-6.967393 -16.182785,-4.559111c-6.197581,2.408273 -7.187692,2.863498 -15.627826,6.107046c-8.440135,3.243558 -13.66005,6.441023 -28.895563,7.536814c-15.235513,1.095801 -27.982712,-1.485804 -37.882711,-2.961321c-9.899999,-1.475527 -21.822013,-6.408325 -29.353194,-9.914858c-7.531191,-3.506542 -16.729075,-10.729676 -21.360314,-13.622579c-4.631259,-2.892893 -8.843597,-7.332421 -12.826096,-11.978877c-3.982488,-4.646447 -5.550287,-9.838881 -8.623842,-16.852252c-3.073565,-7.013381 -3.421383,-9.481049 -13.083397,-7.937582c-9.662013,1.543467 -7.914555,13.293454 -6.359905,18.16482c1.554671,4.871366 6.296757,14.869407 12.101623,21.332228l0.000001,-0.000001z" id="svg_40" transform="rotate(14.78189468383789 1739.3681640625002,312.9054260253909) " stroke="null"/>
  <rect fill="#e5e5e5" stroke-width="1.5" x="1809.335008" y="141.999232" width="196.000384" height="173.333673" id="svg_15"/>
  <ellipse fill="#e5e5e5" stroke-width="1.5" cx="-91.335381" cy="239.999425" id="svg_16" rx="267.333857" ry="175.333677"/>
  <path fill="#cccccc" stroke-width="1.5" stroke-opacity="null" d="m-121.779288,233.588299c12.75173,14.95639 40.47663,45.54859 70.00873,63.38317c29.5321,17.83457 70.26255,35.87309 111.43232,42.16214c41.16976,6.28905 91.73205,1.03511 119.2416,-4.87714c27.50955,-5.91225 64.33226,-19.73253 79.84475,-28.11451c15.51249,-8.38198 18.85601,-21.35825 10.69669,-38.56782c-8.15932,-17.20957 -21.9348,-16.12406 -35.54919,-10.55079c-13.61439,5.57327 -15.78939,6.62676 -34.33008,14.13305c-18.54067,7.50629 -30.00741,14.90593 -63.47569,17.44183c-33.46827,2.53591 -61.47041,-3.43848 -83.21802,-6.85316c-21.7476,-3.41468 -47.93701,-14.83024 -64.48097,-22.94514c-16.54397,-8.1149 -36.74922,-24.83079 -46.92281,-31.5256c-10.1736,-6.69479 -19.42697,-16.96883 -28.17543,-27.72172c-8.74845,-10.75291 -12.19248,-22.76933 -18.94424,-38.9998c-6.75178,-16.23048 -7.51585,-21.94121 -28.74066,-18.36929c-21.22482,3.57192 -17.38613,30.76395 -13.97097,42.03736c3.41517,11.2734 13.83225,34.41103 26.58397,49.36742z" id="svg_34" transform="rotate(-43.92781448364258 61.357250213623004,241.57156372070312) " stroke="null"/>
  <path fill="#4c4c4c" stroke="null" stroke-width="1.5" stroke-opacity="null" id="svg_18"/>
  <path fill="#b2b2b2" stroke-width="1.5" stroke-opacity="null" d="m530.991118,259.095084c7.41629,13.28817 43.94539,41.94756 75.89237,56.55438c31.94699,14.60685 63.39407,27.86851 104.56384,34.15756c41.16976,6.28905 93.54581,3.47646 110.85044,0.2305c17.30462,-3.24597 70.64216,-22.67954 79.48464,-28.46139c8.84244,-5.78187 12.98561,-13.82248 8.22602,-19.4264c-4.75959,-5.60392 -8.67703,-6.8246 -17.32932,-0.63697c-8.65231,6.18762 -20.63241,12.37524 -39.1731,19.88153c-18.54067,7.50629 -29.37981,10.65081 -62.84809,13.18671c-33.46827,2.53591 -74.54295,-2.84021 -86.71323,-4.66606c-12.17029,-1.82586 -51.81879,-14.40398 -68.36275,-22.51888c-16.54397,-8.1149 -41.64517,-21.91024 -51.81876,-28.60505c-10.1736,-6.69479 -19.01393,-13.79403 -27.76239,-24.54692c-8.74845,-10.75291 -11.31349,-13.59181 -18.06525,-29.82228c-6.75178,-16.23048 -10.38348,-24.00922 -18.53575,-21.03558c-8.15228,2.97365 -4.19166,17.78687 -1.90973,25.19175c2.28192,7.40486 6.08479,17.22891 13.50106,30.5171z" id="svg_13" transform="rotate(-13.619129180908203 713.250854492187,278.1621093749999) " stroke="null"/>
  <path fill="#4c4c4c" stroke-width="1.5" stroke-opacity="null" fill-opacity="null" d="m562.07926,288.71851c6.68132,7.52404 36.91851,23.43363 65.69952,31.70432c28.78102,8.27069 49.51022,13.89936 86.60003,17.46035c37.08981,3.56099 80.77527,3.50355 96.365,1.66562c15.58972,-1.83793 56.96244,-12.40604 64.92861,-15.67985c7.96616,-3.27381 16.78891,-7.58147 14.3905,-8.95992c-2.39841,-1.37846 -3.85461,-1.78051 -11.64946,1.72306c-7.79486,3.50356 -18.58773,7.00712 -35.29101,11.25733c-16.70328,4.25022 -26.46825,6.03071 -56.6198,7.46659c-30.15154,1.43588 -67.15569,-1.60819 -78.11989,-2.64202c-10.9642,-1.03384 -46.6835,-8.15583 -61.58795,-12.75065c-14.90445,-4.59483 -37.5181,-12.40603 -46.68348,-16.19677c-9.16539,-3.79073 -17.12964,-7.81046 -25.01111,-13.89897c-7.88148,-6.08852 -10.19232,-7.69596 -16.27498,-16.88599c-6.08267,-9.19003 -7.88149,-15.7951 -10.96517,-14.47409c-3.08367,1.32101 1.19921,11.25732 3.255,15.45011c2.05578,4.19279 4.28287,7.23684 10.96419,14.76088z" id="svg_20" transform="rotate(-12.397052764892578 718.6210937500001,299.5627136230472) " stroke="null"/>
  <path fill="#b2b2b2" stroke-width="1.5" stroke-opacity="null" d="m1111.060709,285.15736c3.19518,3.96949 20.2567,13.03784 34.02053,17.40124c13.76384,4.3634 24.66871,7.46206 42.40603,9.34075c17.73732,1.87869 41.5607,2.5663 49.01611,1.59666c7.45542,-0.96965 26.36465,-4.97848 30.17428,-6.70565c3.80963,-1.72718 12.75636,-6.74568 9.55383,-9.75745c-3.20254,-3.01177 -6.2988,-2.86411 -10.0265,-1.01571c-3.72771,1.84838 -8.88914,3.69677 -16.87709,5.93907c-7.98795,2.24231 -12.65781,3.18165 -27.07708,3.93918c-14.41925,0.75753 -32.11561,-0.84844 -37.35898,-1.39386c-5.24337,-0.54543 -22.32527,-4.3028 -29.45297,-6.72691c-7.1277,-2.42412 -17.94214,-6.5451 -22.32527,-8.545c-4.38313,-1.99989 -8.19184,-4.12059 -11.96097,-7.33273c-3.76913,-3.21215 -4.87423,-4.06019 -7.78312,-8.90861c-2.90889,-4.84842 -2.89283,-9.89972 -7.68674,-6.94583c-4.79391,2.9539 -1.58193,7.003 -0.59879,9.21501c0.98312,2.21201 2.78156,5.93034 5.97674,9.89983l-0.00001,0.00001z" id="svg_31" transform="rotate(-7.418992519378662 1190.0144042968757,289.54916381835994) " stroke="null"/>
  <path fill="#4c4c4c" stroke-width="1.5" stroke-opacity="null" fill-opacity="null" d="m812.40414,251.31856c7.22244,7.80122 39.90855,24.2969 71.02054,32.87227c31.112,8.57538 53.52007,14.4114 93.61379,18.10358c40.09373,3.69217 87.31729,3.63261 104.16964,1.72698c16.85233,-1.90564 61.57584,-12.86307 70.1872,-16.25748c8.61134,-3.39442 18.14864,-7.86077 15.55599,-9.29c-2.59266,-1.42924 -4.1668,-1.8461 -12.59296,1.78654c-8.42616,3.63263 -20.09315,7.26525 -38.14924,11.67204c-18.05608,4.40679 -28.61192,6.25287 -61.20545,7.74165c-32.59352,1.48877 -72.59465,-1.66744 -84.44685,-2.73935c-11.85219,-1.07193 -50.46441,-8.45628 -66.57597,-13.22037c-16.11157,-4.7641 -40.55671,-12.86306 -50.46439,-16.79345c-9.9077,-3.93037 -18.51698,-8.09818 -27.03677,-14.41099c-8.5198,-6.31281 -11.0178,-7.97947 -17.5931,-17.50805c-6.5753,-9.52858 -8.51981,-16.37698 -11.85324,-15.0073c-3.33342,1.36967 1.29633,11.67203 3.51862,16.01927c2.22228,4.34725 4.62974,7.50344 11.85219,15.30466z" id="svg_21" transform="rotate(3.2284388542175293 981.6243896484384,262.56225585937483) " stroke="null"/>
  <path fill="#b2b2b2" stroke-width="1.5" stroke-opacity="null" d="m217.990802,236.095063c7.41629,13.28817 43.94539,41.94756 75.89237,56.55438c31.94699,14.60685 63.39407,27.86851 104.56384,34.15756c41.16976,6.28905 93.54581,3.47646 110.85044,0.2305c17.30462,-3.24597 70.64216,-22.67954 79.48464,-28.46139c8.84244,-5.78187 12.98561,-13.82248 8.22602,-19.4264c-4.75959,-5.60392 -8.67703,-6.8246 -17.32932,-0.63697c-8.65231,6.18762 -20.63241,12.37524 -39.1731,19.88153c-18.54067,7.50629 -29.37981,10.65081 -62.84809,13.18671c-33.46827,2.53591 -74.54295,-2.84021 -86.71323,-4.66606c-12.17029,-1.82586 -51.81879,-14.40398 -68.36275,-22.51888c-16.54397,-8.1149 -41.64517,-21.91024 -51.81876,-28.60505c-10.1736,-6.69479 -19.01393,-13.79403 -27.76239,-24.54692c-8.74845,-10.75291 -11.31349,-13.59181 -18.06525,-29.82228c-6.75178,-16.23048 -10.38348,-24.00922 -18.53575,-21.03558c-8.15228,2.97365 -4.19166,17.78687 -1.90973,25.19175c2.28192,7.40486 6.08479,17.22891 13.50106,30.5171z" id="svg_17" transform="rotate(-6.82213020324707 400.25051879882824,255.16207885742168) " stroke="null"/>
  <path fill="#4c4c4c" stroke-width="1.5" stroke-opacity="null" fill-opacity="null" d="m245.48134,265.17664c6.68534,7.89984 36.94069,24.60407 65.73899,33.28785c28.79831,8.68379 49.53996,14.5936 86.65205,18.33245c37.11209,3.73885 80.82379,3.67854 96.42288,1.74881c15.59909,-1.92973 56.99666,-13.02569 64.96762,-16.46301c7.97094,-3.43733 16.79899,-7.96015 14.39914,-9.40744c-2.39985,-1.44731 -3.85693,-1.86944 -11.65646,1.80912c-7.79954,3.67855 -18.59889,7.3571 -35.31221,11.8196c-16.71331,4.4625 -26.48415,6.33192 -56.65381,7.83952c-30.16965,1.5076 -67.19603,-1.68851 -78.16681,-2.77398c-10.97079,-1.08548 -46.71155,-8.56319 -61.62495,-13.38751c-14.9134,-4.82432 -37.54064,-13.02567 -46.71152,-17.00575c-9.1709,-3.98006 -17.13993,-8.20057 -25.02614,-14.59318c-7.88621,-6.39262 -10.19844,-8.08035 -16.28475,-17.72939c-6.08633,-9.64905 -7.88623,-16.58402 -10.97176,-15.19703c-3.08552,1.38699 1.19993,11.81959 3.25695,16.2218c2.05702,4.4022 4.28545,7.59829 10.97078,15.49814z" id="svg_22" transform="rotate(-4.380867958068848 402.11724853515534,276.56249999999966) " stroke="null"/>
  <path fill="#cccccc" stroke-width="1.5" stroke-opacity="null" d="m1328.788024,258.940165c10.13021,9.81828 44.7348,39.21821 59.48846,42.97888c14.75366,3.76068 44.09542,10.18217 58.6913,12.28533c14.59589,2.10317 73.14536,-2.4269 88.73509,-4.26483c15.58972,-1.83793 65.11781,-16.40647 73.21286,-19.72932c8.09504,-3.32286 44.89454,-22.29225 62.07353,-35.61928c17.17899,-13.32703 39.32588,-35.36793 48.27964,-46.67235c8.95376,-11.30442 31.06352,-54.96596 35.77812,-70.59476c4.7146,-15.62881 7.12231,-47.79323 6.84708,-61.32248c-0.27523,-13.52925 -5.89041,-35.30295 -10.17107,-48.48576c-4.28065,-13.18281 -8.29133,-23.41448 -10.39289,-30.37228c-2.10157,-6.95781 -11.08983,-21.25122 -29.25228,-16.04936c-18.16246,5.20187 -13.70735,21.27273 -12.62817,27.95971c2.15835,13.37397 7.05599,32.93214 9.45455,42.58227c2.39856,9.65012 3.37778,25.65662 3.04147,41.34011c-0.33632,15.68348 -4.54458,31.28888 -8.28537,40.745c-3.74079,9.45612 -16.7632,33.7886 -30.08332,47.09595c-13.32013,13.30734 -25.98053,24.6342 -43.14775,37.62923c-17.16721,12.99504 -33.82648,23.1976 -41.62133,26.70117c-7.79486,3.50356 -18.16111,7.20766 -34.86439,11.45787c-16.70328,4.25022 -30.97137,7.29976 -56.50675,7.78017c-25.53538,0.48041 -48.92796,-2.15568 -62.02527,-4.19218c-13.0973,-2.03649 -37.49497,-9.69667 -48.93729,-15.0081c-11.44232,-5.31143 -25.6552,-23.23772 -32.82805,-31.82154c-7.17284,-8.58382 -12.85304,-24.94262 -21.89444,-44.07748c-9.04139,-19.13486 -9.39799,-27.11603 -13.57365,-35.93057c-4.17566,-8.81455 -13.39319,-25.67826 -33.08372,-17.83899c-19.69054,7.83927 -13.84125,28.01801 -10.54738,37.61092c3.29387,9.59291 9.99354,27.27984 17.89625,43.90442c7.90272,16.62457 26.21455,52.08998 36.34477,61.90825z" id="svg_41" transform="rotate(19.824222564697266 1516.5113525390625,147.36408996582085) " stroke="null"/>
  <path fill="#b2b2b2" stroke-width="1.5" stroke-opacity="null" d="m1339.988219,259.13292c10.13021,9.81828 40.49562,27.45905 55.24928,31.21972c14.75366,3.76068 42.00605,8.8094 56.60193,10.91256c14.59589,2.10317 58.39444,2.35931 73.98417,0.52138c15.58972,-1.83793 56.78245,-14.46456 64.8775,-17.78741c8.09504,-3.32286 36.97498,-16.24828 54.15397,-29.57531c17.17899,-13.32703 38.08435,-34.38886 45.74201,-40.44259c7.65766,-6.05372 34.62384,-50.29268 39.47026,-61.82736c2.42321,-5.76734 7.02597,-23.50015 9.26523,-39.87142c1.11964,-8.18565 -0.28435,-38.91843 -0.98787,-48.07584c-0.70352,-9.15741 -3.70267,-29.85214 -5.80423,-36.80994c-2.10157,-6.95781 -5.64746,-12.0518 -12.95315,-9.16931c-7.30569,2.88248 -8.16173,8.64363 -7.08255,15.33061c2.15835,13.37397 6.30106,27.88934 6.40235,34.11567c0.10128,6.22633 3.13742,35.31019 0.9742,47.40031c-2.16322,12.09012 -5.84655,23.25432 -9.58734,32.71044c-3.74079,9.45612 -20.75026,38.9464 -34.07038,52.25375c-13.32013,13.30734 -25.98053,24.6342 -43.14775,37.62923c-17.16721,12.99504 -33.82648,23.1976 -41.62133,26.70117c-7.79486,3.50356 -18.16111,7.20766 -34.86439,11.45787c-16.70328,4.25022 -30.97137,7.29976 -56.50675,7.78017c-25.53538,0.48041 -48.92796,-2.15568 -62.02527,-4.19218c-13.0973,-2.03649 -30.62527,-6.85825 -45.52972,-11.45307c-14.90445,-4.59483 -30.583,-17.74078 -39.33651,-26.28627c-8.75351,-8.54548 -23.48567,-26.42451 -32.52707,-45.55937c-9.04139,-19.13486 -10.67786,-27.71763 -13.15785,-31.82851c-2.47999,-4.11088 -3.56418,-11.68227 -12.60586,-8.2134c-9.04167,3.46885 -7.50822,8.72711 -5.74045,14.08672c1.76777,5.35961 5.7927,17.10135 13.69541,33.72593c7.90272,16.62457 27.00194,45.42818 37.13216,55.24645z" id="svg_33" transform="rotate(19.824222564697266 1513.7818603515625,160.21194458007815) " stroke="null"/>
  <path fill="#b2b2b2" stroke-width="1.5" stroke-opacity="null" d="m1256.060448,274.157383c3.19518,3.96949 20.2567,13.03784 34.02053,17.40124c13.76384,4.3634 24.66871,7.46206 42.40603,9.34075c17.73732,1.87869 41.5607,2.5663 49.01611,1.59666c7.45542,-0.96965 26.36465,-4.97848 30.17428,-6.70565c3.80963,-1.72718 12.75636,-6.74568 9.55383,-9.75745c-3.20254,-3.01177 -6.2988,-2.86411 -10.0265,-1.01571c-3.72771,1.84838 -8.88914,3.69677 -16.87709,5.93907c-7.98795,2.24231 -12.65781,3.18165 -27.07708,3.93918c-14.41925,0.75753 -32.11561,-0.84844 -37.35898,-1.39386c-5.24337,-0.54543 -22.32527,-4.3028 -29.45297,-6.72691c-7.1277,-2.42412 -17.94214,-6.5451 -22.32527,-8.545c-4.38313,-1.99989 -8.19184,-4.12059 -11.96097,-7.33273c-3.76913,-3.21215 -4.87423,-4.06019 -7.78312,-8.90861c-2.90889,-4.84842 -2.89283,-9.89972 -7.68674,-6.94583c-4.79391,2.9539 -1.58193,7.003 -0.59879,9.21501c0.98312,2.21201 2.78156,5.93034 5.97674,9.89983l-0.00001,0.00001z" id="svg_30" transform="rotate(-7.418992519378662 1335.0141601562502,278.54919433593693) " stroke="null"/>
  <path fill="#4c4c4c" stroke-width="1.5" stroke-opacity="null" fill-opacity="null" d="m1349.189071,258.727047c10.13021,9.81828 41.35968,23.95857 56.11334,27.71924c14.75366,3.76068 38.192,8.05838 52.78788,10.16154c14.59589,2.10317 52.69891,2.28656 68.28864,0.44863c15.58972,-1.83793 55.55369,-12.9586 63.64874,-16.28145c8.09504,-3.32286 30.56481,-15.35474 47.7438,-28.68177c17.17899,-13.32703 36.7681,-32.1427 44.42576,-38.19643c7.65766,-6.05372 30.78815,-43.24061 35.63457,-54.77529c2.42321,-5.76734 9.08242,-25.65882 11.32168,-42.03009c1.11964,-8.18564 2.68007,-23.48945 2.35237,-40.77605c-0.16385,-8.6433 -1.97063,-27.99622 -3.13146,-35.29316c-1.16084,-7.29694 -2.18727,-17.19684 -6.47022,-15.75838c-4.28295,1.43847 -0.16892,12.1402 0.91026,18.82718c2.15835,13.37397 2.82614,28.07905 2.92743,34.30538c0.10128,6.22633 -1.64293,33.84452 -3.80615,45.93464c-2.16322,12.09012 -5.84655,23.25432 -9.58734,32.71044c-3.74079,9.45612 -20.75026,38.9464 -34.07038,52.25375c-13.32013,13.30734 -25.98053,24.6342 -43.14775,37.62923c-17.16721,12.99504 -33.82648,23.1976 -41.62133,26.70117c-7.79486,3.50356 -18.16111,7.20766 -34.86439,11.45787c-16.70328,4.25022 -30.97137,7.29976 -56.50675,7.78017c-25.53538,0.48041 -48.92796,-2.15568 -62.02527,-4.19218c-13.0973,-2.03649 -30.62527,-6.85825 -45.52972,-11.45307c-14.90445,-4.59483 -33.15357,-15.04243 -41.90708,-23.58792c-8.75351,-8.54548 -24.6633,-22.811 -33.7047,-41.94586c-9.04139,-19.13486 -12.97514,-31.14143 -15.45513,-35.25231c-2.47999,-4.11088 -1.61686,-5.29766 -4.70054,-3.97665c-3.08367,1.32101 -1.7655,2.05056 0.00227,7.41017c1.76777,5.35961 6.41985,16.87527 14.32256,33.49985c7.90272,16.62457 25.91869,35.54308 36.04891,45.36135z" id="svg_24" transform="rotate(19.824222564697266 1514.2574462890623,161.72137451171892) " stroke="null"/>
  <path fill="#4c4c4c" stroke-width="1.5" stroke-opacity="null" fill-opacity="null" d="m1115.26459,284.34138c3.19519,3.96949 17.6554,12.36297 31.41924,16.72638c13.76384,4.3634 23.67709,7.33294 41.41441,9.21162c17.73732,1.87869 38.62885,1.84838 46.08427,0.87874c7.45541,-0.96964 27.24093,-6.5451 31.05056,-8.27228c3.80963,-1.72718 8.0289,-3.99979 6.88192,-4.72702c-1.14699,-0.72724 -1.84338,-0.93935 -5.57108,0.90904c-3.72771,1.84839 -8.88914,3.69677 -16.87709,5.93908c-7.98794,2.2423 -12.65781,3.18164 -27.07707,3.93917c-14.41926,0.75754 -32.11561,-0.84843 -37.35898,-1.39386c-5.24337,-0.54542 -22.32528,-4.3028 -29.45298,-6.72691c-7.1277,-2.42411 -17.94214,-6.5451 -22.32526,-8.54499c-4.38313,-1.99989 -8.19185,-4.1206 -11.96097,-7.33274c-3.76913,-3.21214 -4.87424,-4.06019 -7.78312,-8.90861c-2.9089,-4.84842 -3.76914,-8.33308 -5.24384,-7.63615c-1.47469,0.69693 0.5735,5.93907 1.55663,8.15108c0.98313,2.212 2.04818,3.81796 5.24336,7.78745z" id="svg_25" transform="rotate(-7.418992519378662 1190.1269531250002,290.0625000000001) " stroke="null"/>
  <path fill="#4c4c4c" stroke-width="1.5" stroke-opacity="null" fill-opacity="null" d="m1258.26636,273.34125c3.19518,3.96949 17.6554,12.36297 31.41923,16.72637c13.76384,4.3634 23.67709,7.33294 41.41441,9.21163c17.73732,1.87869 38.62886,1.84838 46.08427,0.87874c7.45542,-0.96965 27.24094,-6.54511 31.05057,-8.27228c3.80963,-1.72718 8.0289,-3.99979 6.88191,-4.72702c-1.14698,-0.72724 -1.84337,-0.93936 -5.57107,0.90904c-3.72771,1.84838 -8.88914,3.69677 -16.87709,5.93907c-7.98795,2.24231 -12.65781,3.18165 -27.07708,3.93918c-14.41925,0.75753 -32.11561,-0.84844 -37.35898,-1.39386c-5.24337,-0.54543 -22.32527,-4.3028 -29.45297,-6.72691c-7.1277,-2.42412 -17.94214,-6.5451 -22.32527,-8.545c-4.38313,-1.99989 -8.19184,-4.12059 -11.96097,-7.33273c-3.76913,-3.21215 -4.87423,-4.06019 -7.78312,-8.90861c-2.90889,-4.84842 -3.76913,-8.33309 -5.24383,-7.63616c-1.47469,0.69694 0.57349,5.93907 1.55663,8.15108c0.98312,2.21201 2.04818,3.81797 5.24336,7.78746z" id="svg_26" transform="rotate(-7.418992519378662 1333.128784179687,279.0623779296881) " stroke="null"/>
  <path fill="#b2b2b2" stroke-width="1.5" stroke-opacity="null" d="m1659.726393,312.823976c3.19518,3.96949 20.2567,13.03784 34.02053,17.40124c13.76384,4.3634 24.66871,7.46206 42.40603,9.34075c17.73732,1.87869 41.5607,2.5663 49.01611,1.59666c7.45542,-0.96965 26.36465,-4.97848 30.17428,-6.70565c3.80963,-1.72718 12.75636,-6.74568 9.55383,-9.75745c-3.20254,-3.01177 -6.2988,-2.86411 -10.0265,-1.01571c-3.72771,1.84838 -8.88914,3.69677 -16.87709,5.93907c-7.98795,2.24231 -12.65781,3.18165 -27.07708,3.93918c-14.41925,0.75753 -32.11561,-0.84844 -37.35898,-1.39386c-5.24337,-0.54543 -22.32527,-4.3028 -29.45297,-6.72691c-7.1277,-2.42412 -17.94214,-6.5451 -22.32527,-8.545c-4.38313,-1.99989 -8.19184,-4.12059 -11.96097,-7.33273c-3.76913,-3.21215 -4.87423,-4.06019 -7.78312,-8.90861c-2.90889,-4.84842 -2.89283,-9.89972 -7.68674,-6.94583c-4.79391,2.9539 -1.58193,7.003 -0.59879,9.21501c0.98312,2.21201 2.78156,5.93034 5.97674,9.89983l-0.00001,0.00001z" id="svg_32" transform="rotate(17.7925968170166 1738.6801757812495,317.215789794922) " stroke="null"/>
  <path fill="#4c4c4c" stroke-width="1.5" stroke-opacity="null" fill-opacity="null" d="m1662.27134,311.34172c3.19518,3.96949 17.6554,12.36297 31.41923,16.72637c13.76384,4.3634 23.67709,7.33294 41.41441,9.21163c17.73732,1.87869 38.62886,1.84838 46.08427,0.87874c7.45542,-0.96965 27.24094,-6.54511 31.05057,-8.27228c3.80963,-1.72718 8.0289,-3.99979 6.88191,-4.72702c-1.14698,-0.72724 -1.84337,-0.93936 -5.57107,0.90904c-3.72771,1.84838 -8.88914,3.69677 -16.87709,5.93907c-7.98795,2.24231 -12.65781,3.18165 -27.07708,3.93918c-14.41925,0.75753 -32.11561,-0.84844 -37.35898,-1.39386c-5.24337,-0.54543 -22.32527,-4.3028 -29.45297,-6.72691c-7.1277,-2.42412 -17.94214,-6.5451 -22.32527,-8.545c-4.38313,-1.99989 -8.19184,-4.12059 -11.96097,-7.33273c-3.76913,-3.21215 -4.87423,-4.06019 -7.78312,-8.90861c-2.90889,-4.84842 -3.76913,-8.33309 -5.24383,-7.63616c-1.47469,0.69694 0.57349,5.93907 1.55663,8.15108c0.98312,2.21201 2.04818,3.81797 5.24336,7.78746z" id="svg_27" transform="rotate(17.770952224731445 1737.1339111328127,317.0628356933596) " stroke="null"/>
  <path fill="#b2b2b2" stroke-width="1.5" stroke-opacity="null" d="m-134.009544,238.095057c7.41629,13.28817 43.94539,41.94756 75.89237,56.55438c31.94699,14.60685 63.39407,27.86851 104.56384,34.15756c41.16976,6.28905 93.54581,3.47646 110.85044,0.2305c17.30462,-3.24597 70.64216,-22.67954 79.48464,-28.46139c8.84244,-5.78187 12.98561,-13.82248 8.22602,-19.4264c-4.75959,-5.60392 -8.67703,-6.8246 -17.32932,-0.63697c-8.65231,6.18762 -20.63241,12.37524 -39.1731,19.88153c-18.54067,7.50629 -29.37981,10.65081 -62.84809,13.18671c-33.46827,2.53591 -74.54295,-2.84021 -86.71323,-4.66606c-12.17029,-1.82586 -51.81879,-14.40398 -68.36275,-22.51888c-16.54397,-8.1149 -41.64517,-21.91024 -51.81876,-28.60505c-10.1736,-6.69479 -19.01393,-13.79403 -27.76239,-24.54692c-8.74845,-10.75291 -11.31349,-13.59181 -18.06525,-29.82228c-6.75178,-16.23048 -10.38348,-24.00922 -18.53575,-21.03558c-8.15228,2.97365 -4.19166,17.78687 -1.90973,25.19175c2.28192,7.40486 6.08479,17.22891 13.50106,30.5171z" id="svg_19" transform="rotate(-38.572505950927734 48.25017547607434,257.16207885742193) " stroke="null"/>
  <path fill="#4c4c4c" stroke-width="1.5" stroke-opacity="null" fill-opacity="null" d="m-75.438353,249.53543c6.703239,7.997803 37.039592,24.909176 65.914994,33.70064c28.875412,8.791474 49.672594,14.77457 86.884045,18.559784c37.211451,3.785214 81.040181,3.724156 96.681035,1.770496c15.640854,-1.95366 57.149258,-13.187217 65.141559,-16.667162c7.992281,-3.479955 16.843966,-8.058861 14.437691,-9.524098c-2.406275,-1.465258 -3.867256,-1.892622 -11.687668,1.831554c-7.820422,3.724166 -18.648685,7.448333 -35.406752,11.96617c-16.758057,4.517838 -26.555057,6.41044 -56.80549,7.936735c-30.250424,1.526295 -67.375935,-1.709449 -78.376088,-2.808379c-11.000162,-1.098941 -46.836612,-8.669379 -61.78994,-13.553524c-14.953328,-4.884145 -37.641148,-13.187196 -46.836582,-17.216632c-9.195453,-4.029415 -17.185819,-8.302262 -25.093143,-14.774145c-7.907324,-6.471892 -10.225745,-8.180551 -16.32835,-17.949246c-6.102625,-9.768704 -7.907344,-16.789672 -11.001135,-15.385483c-3.093781,1.40419 1.203143,11.96616 3.26567,16.42296c2.062527,4.45679 4.296924,7.692514 11.000152,15.690327l0.000002,0.000003z" id="svg_23" transform="rotate(-43.36936950683594 81.6169128417968,261.0624694824218) " stroke="null"/>
  <path stroke="null" transform="rotate(-18.57010841369629 325.58038330078125,726.9434814453124) " id="svg_45" d="m347.881764,726.02162c-2.173949,-0.379499 -4.436593,-0.629367 -6.273859,-0.697001l-0.324011,-0.011272c0.074215,-0.169084 0.130328,-0.283685 0.148429,-0.300593c0.039823,-0.033817 0.072405,-0.176599 0.076025,-0.315623c0,-0.077027 0.032582,-0.326895 0.083265,-0.657548c0.497782,0.018788 1.158474,0.033817 1.8789,0.039453c2.782147,0.022545 5.692812,0.255504 7.689369,0.621852c1.189246,0.21793 1.582041,0.210416 0.704135,-0.011272c-0.888766,-0.223566 -3.524294,-0.55234 -5.624028,-0.695122c-1.410079,-0.099571 -3.431978,-0.137145 -4.623034,-0.116479c0.034392,-0.214173 0.074215,-0.452769 0.115847,-0.697001c0.168341,-0.944989 0.224455,-1.895615 0.228075,-3.787474c0.00362,-2.93454 -0.148429,-3.742384 -1.069778,-5.683089c-0.374694,-0.792814 -0.798261,-1.465392 -1.310523,-2.074093c0.447098,-1.369577 0.436237,-3.490638 -0.027152,-5.350558c-0.381934,-1.52551 -0.515883,-1.623203 -1.848128,-1.330125c-1.129512,0.249869 -2.034569,0.589915 -3.194853,1.196737c-0.548465,0.287442 -1.305093,0.734575 -1.853558,1.085893c-1.429991,-0.522281 -2.908855,-0.867963 -4.487276,-1.053955c-1.600141,-0.187871 -5.522661,-0.082663 -6.91464,0.184113c-1.361206,0.261141 -2.586654,0.580521 -3.696255,0.96002c-0.553895,-0.355076 -1.357586,-0.834146 -1.931393,-1.134739c-1.165714,-0.608702 -2.070771,-0.946869 -3.203903,-1.196737c-1.328625,-0.294957 -1.466194,-0.195386 -1.846318,1.330125c-0.47063,1.884343 -0.47425,4.041099 -0.00905,5.406919c0.054303,0.155933 0.086885,0.266777 0.099556,0.353197c-1.88614,2.464864 -2.501579,5.222806 -2.092493,9.072277c0.106796,1.00323 0.271517,1.923796 0.501402,2.767336c-1.203727,-0.007515 -2.916096,0.037574 -4.152405,0.120237c-2.103353,0.144661 -4.738881,0.469677 -5.627648,0.693243c-0.876095,0.221688 -0.486921,0.229203 0.704135,0.013151c1.996557,-0.364469 4.909032,-0.601186 7.689369,-0.621852c0.524934,-0.001879 1.015475,-0.013151 1.437232,-0.024423c0.126708,0.445254 0.271517,0.869841 0.436238,1.273763l-0.012671,0.001879c-1.837267,0.065755 -4.098101,0.315623 -6.272049,0.695122c-1.630914,0.283685 -4.038367,0.851054 -4.318935,1.014502c-0.295049,0.170962 -0.054304,0.133388 1.209157,-0.199143c2.304276,-0.604944 5.300017,-1.068985 9.010753,-1.392122l0.414517,-0.037574c0.79645,1.920038 2.023708,3.38543 3.757799,4.527684c1.060727,0.700758 2.760425,1.420303 3.61661,1.533025c0.235315,0.030059 0.919538,0.176598 1.520497,0.323138c0.602768,0.146539 1.781153,0.366348 2.617426,0.492221l0.019911,0c-0.016291,0.011272 -0.030772,0.018787 -0.045253,0.030059c-1.013664,0.546704 -1.672546,1.397758 -2.116024,2.737277c-0.199113,0.061997 -0.447099,0.146539 -0.714996,0.242353c-0.957551,0.338167 -1.330434,0.407679 -2.300656,0.415194c-1.006424,0.007515 -1.245359,-0.037574 -1.846318,-0.330652c-0.874285,-0.422709 -1.688837,-1.200494 -2.231872,-2.128576c-0.906867,-1.551812 -2.474427,-2.648977 -3.78133,-2.648977c-1.116841,0 -1.328625,0.469677 -0.521313,1.155405c1.216397,1.03141 2.125075,2.083487 2.497959,2.887573c0.209973,0.45089 0.532173,1.14789 0.718615,1.548055c0.197303,0.426466 0.61906,1.005108 1.020905,1.405273c0.94488,0.935596 1.857178,1.382728 3.218385,1.593144c0.912298,0.139024 1.136752,0.139024 2.213771,-0.003758c0.519503,-0.065754 0.957551,-0.142781 1.350346,-0.238596c0,0.458405 0,0.986322 0,1.606295c0,3.317797 -0.038013,4.384903 -0.164721,4.696768c-0.238935,0.593672 -0.774729,1.204252 -1.296042,1.478543c-0.519503,0.274291 -0.680603,0.576763 -0.461579,0.854812c0.121277,0.150296 0.354782,0.176598 1.138562,0.123994c1.487915,-0.095814 2.539592,-0.666941 3.075386,-1.673928c0.171961,-0.323138 0.211783,-0.97317 0.266087,-4.354843c0.057923,-3.669115 0.083265,-4.022312 0.31315,-4.546472c0.139378,-0.311865 0.340301,-0.650032 0.452528,-0.742089c0.188252,-0.161569 0.200923,0.157811 0.200923,4.546471c-0.00181,4.843308 -0.048873,5.427586 -0.515883,6.359424c-0.104986,0.212294 -0.304099,0.488464 -0.443478,0.619974c-0.244366,0.231081 -0.347542,0.822873 -0.177391,1.001351c0.280568,0.289321 1.687027,-0.165327 2.454516,-0.792815c1.306903,-1.07462 1.462573,-1.963249 1.473434,-8.380913l0.00543,-3.764929l0.396415,0.039453l0.396415,0.037574l0.065165,4.924092c0.074214,5.544065 0.085075,5.624849 0.993753,6.695712c0.515883,0.604944 1.035386,0.939354 1.88071,1.200494c1.131322,0.353197 1.471623,-0.191628 0.711375,-1.136618c-0.827223,-1.027653 -0.867045,-1.420302 -0.821792,-7.503556c0.030771,-3.900197 0.030771,-3.900197 0.273327,-3.672873c0.510452,0.480949 0.608199,1.270006 0.608199,4.927849c0,4.542714 0.124898,4.974817 1.670736,5.767631c0.722236,0.366348 0.924969,0.411437 1.849938,0.415194c0.984702,0.003758 1.044436,-0.011272 1.080638,-0.278048c0.030772,-0.216052 -0.090505,-0.362591 -0.550275,-0.65379c-0.602768,-0.385135 -1.020905,-0.877357 -1.283371,-1.49733c-0.099557,-0.238596 -0.166531,-1.80168 -0.211784,-5.019906c-0.065164,-4.495746 -0.079645,-4.700525 -0.349352,-5.40504c-0.363833,-0.946869 -0.919539,-1.694594 -1.623673,-2.190573c-0.182822,-0.123995 -0.365644,-0.227324 -0.602769,-0.304351c0.291429,-0.030059 0.573807,-0.061997 0.847134,-0.103328c2.845501,-0.39265 4.349707,-0.719545 5.557054,-1.204252c2.554072,-1.020138 4.280922,-2.714732 5.216752,-5.117598c0.083265,-0.214173 0.16653,-0.417073 0.237125,-0.580521l0.720426,0.061998c3.712546,0.325016 6.708287,0.789057 9.012563,1.395879c1.263461,0.332531 1.504206,0.371984 1.209157,0.197264c-0.275137,-0.15969 -2.682591,-0.725181 -4.311694,-1.008865zm-10.886033,-0.05824c-0.421757,0.961898 -1.598332,2.198087 -2.548642,2.682794c-0.93764,0.480949 -2.407453,0.847296 -4.072759,1.022016c-1.138563,0.120238 -7.488447,0.155933 -8.536503,0.048847c-3.469991,-0.353197 -5.414055,-1.04644 -6.847666,-2.434805c-1.357587,-1.318852 -1.991127,-3.10926 -1.88071,-5.312984c0.070595,-1.378971 0.390985,-2.245055 1.229068,-3.297131c0.762059,-0.958141 1.56394,-1.549934 2.50882,-1.850527c0.79102,-0.251746 3.218385,-0.274291 6.482022,-0.056361c1.442662,0.095814 2.635528,0.095814 4.07638,0c3.413877,-0.223566 5.692812,-0.199143 6.534516,0.071391c1.323194,0.424588 2.528731,1.566842 3.252777,3.088595c0.32582,0.680092 0.389174,0.969413 0.436237,2.01961c0.065165,1.446604 -0.175581,2.983387 -0.63354,4.018555zm-17.214195,-6.211006c-1.942254,-0.353197 -3.051854,3.097988 -1.56213,4.860215c0.707755,0.836025 1.335865,0.97317 2.121455,0.46592c0.727667,-0.471556 1.122272,-1.35267 1.122272,-2.494924c0,-1.523631 -0.667933,-2.643341 -1.681597,-2.831211zm11.78928,0.206657c-1.942254,-0.353197 -3.053664,3.094231 -1.56394,4.858337c0.709566,0.836025 1.335865,0.975049 2.123265,0.464041c0.725857,-0.469677 1.122272,-1.352669 1.122272,-2.494923c0,-1.517996 -0.667933,-2.641463 -1.681597,-2.827455zm-5.223993,6.785891c-0.041632,0.139024 -0.244365,0.345682 -0.448908,0.456526c-0.517693,0.27617 -0.890577,0.180356 -1.437232,-0.336289c-0.338491,-0.317501 -0.492351,-0.484706 -0.595527,-0.152175c-0.095937,0.308108 0.506832,0.926202 0.972031,1.115952c0.427188,0.176598 0.733097,0.182235 1.196487,-0.018787c0.459769,-0.199143 0.861614,-0.734575 0.861614,-1.082136c0,-0.323137 -0.447098,-0.308108 -0.548465,0.016909zm-0.573806,-1.080257c0.295049,-0.270534 0.362023,-0.826631 0.079645,-1.121588s-0.856184,-0.249868 -1.080639,0.080784c-0.260656,0.387014 -0.121277,0.681971 0.065164,0.995715c0.289619,0.23296 0.678794,0.279928 0.93583,0.045089z" stroke-opacity="null" stroke-width="1.5" fill="#ffffff"/>
  <path stroke="null" transform="rotate(16.296113967895508 757.7193603515619,524.0391845703124) " id="svg_46" d="m740.387002,524.161796l1.857042,-3.714082c0.619014,-1.238027 11.213414,3.135101 11.832428,1.897074c0.619013,-1.238028 -8.737359,-8.087209 -8.118345,-9.325236l1.857042,-3.838774c2.357293,-0.290949 3.218279,0.041564 4.827418,0c1.650703,0 3.176715,11.347001 4.827418,11.347001c1.692268,-0.20782 3.509228,-8.520642 5.201495,-11.222309l4.952111,0l1.857041,3.714081c0.619013,1.238028 -9.610205,8.087209 -8.991192,9.325237c0.619014,1.238027 12.08626,-3.135101 12.705274,-1.897074l1.857041,3.714082l-1.857041,3.714081c-0.619014,1.238027 -11.836875,-3.1351 -12.455889,-1.897073c-0.619013,1.238027 9.36082,8.087209 8.741807,9.325236l-1.857041,3.714081l-4.952111,0c-1.650703,0 -3.550792,-10.723539 -5.201495,-10.723539c-1.609139,0 -2.968894,10.723539 -4.578033,10.723539l-5.076803,0l-1.857042,-3.714081c-0.614566,-1.7279 8.870946,-8.069417 8.006996,-9.42324c-0.711038,-1.131127 -12.270308,1.603208 -12.482576,0.596773l-1.095545,-2.315777z" stroke-opacity="null" stroke-width="1.5" fill="#ffffff"/>
  <path stroke="null" transform="rotate(16.296113967895508 533.7193603515622,488.03918457031256) " id="svg_47" d="m516.387003,488.161796l1.857041,-3.714082c0.619014,-1.238027 11.213414,3.135101 11.832428,1.897074c0.619014,-1.238028 -8.737358,-8.087209 -8.118345,-9.325236l1.857042,-3.838774c2.357293,-0.290949 3.218279,0.041564 4.827418,0c1.650704,0 3.176715,11.347001 4.827418,11.347001c1.692268,-0.20782 3.509228,-8.520642 5.201495,-11.222309l4.952111,0l1.857041,3.714081c0.619014,1.238028 -9.610205,8.087209 -8.991191,9.325237c0.619013,1.238027 12.086259,-3.135101 12.705273,-1.897074l1.857041,3.714082l-1.857041,3.714081c-0.619014,1.238027 -11.836875,-3.1351 -12.455888,-1.897073c-0.619014,1.238027 9.36082,8.087209 8.741806,9.325236l-1.857041,3.714081l-4.952111,0c-1.650703,0 -3.550791,-10.723539 -5.201495,-10.723539c-1.609139,0 -2.968894,10.723539 -4.578033,10.723539l-5.076803,0l-1.857042,-3.714081c-0.614566,-1.7279 8.870947,-8.069417 8.006996,-9.42324c-0.711038,-1.131127 -12.270308,1.603208 -12.482576,0.596773l-1.095544,-2.315777z" stroke-opacity="null" stroke-width="1.5" fill="#ffffff"/>
  <path stroke="null" transform="rotate(16.296113967895508 631.0527343749999,678.7058715820312) " id="svg_48" d="m613.720339,678.828468l1.857041,-3.714082c0.619014,-1.238027 11.213414,3.135101 11.832428,1.897074c0.619014,-1.238028 -8.737358,-8.087209 -8.118345,-9.325236l1.857042,-3.838774c2.357293,-0.290949 3.218279,0.041564 4.827418,0c1.650704,0 3.176715,11.347001 4.827418,11.347001c1.692268,-0.20782 3.509228,-8.520642 5.201495,-11.222309l4.952111,0l1.857041,3.714081c0.619014,1.238028 -9.610205,8.087209 -8.991191,9.325237c0.619013,1.238027 12.086259,-3.135101 12.705273,-1.897074l1.857041,3.714082l-1.857041,3.714081c-0.619014,1.238027 -11.836875,-3.1351 -12.455888,-1.897073c-0.619014,1.238027 9.36082,8.087209 8.741806,9.325236l-1.857041,3.714081l-4.952111,0c-1.650703,0 -3.550791,-10.723539 -5.201495,-10.723539c-1.609139,0 -2.968894,10.723539 -4.578033,10.723539l-5.076803,0l-1.857042,-3.714081c-0.614566,-1.7279 8.870947,-8.069417 8.006996,-9.42324c-0.711038,-1.131127 -12.270308,1.603208 -12.482576,0.596773l-1.095544,-2.315777z" stroke-opacity="null" stroke-width="1.5" fill="#ffffff"/>
  <path stroke="null" transform="rotate(16.296113967895508 931.052734374999,702.7058715820312) " id="svg_49" d="m913.720331,702.828468l1.857041,-3.714082c0.619014,-1.238027 11.213414,3.135101 11.832428,1.897074c0.619014,-1.238028 -8.737358,-8.087209 -8.118345,-9.325236l1.857042,-3.838774c2.357293,-0.290949 3.218279,0.041564 4.827418,0c1.650704,0 3.176715,11.347001 4.827418,11.347001c1.692268,-0.20782 3.509228,-8.520642 5.201495,-11.222309l4.952111,0l1.857041,3.714081c0.619014,1.238028 -9.610205,8.087209 -8.991191,9.325237c0.619013,1.238027 12.086259,-3.135101 12.705273,-1.897074l1.857041,3.714082l-1.857041,3.714081c-0.619014,1.238027 -11.836875,-3.1351 -12.455888,-1.897073c-0.619014,1.238027 9.36082,8.087209 8.741806,9.325236l-1.857041,3.714081l-4.952111,0c-1.650703,0 -3.550791,-10.723539 -5.201495,-10.723539c-1.609139,0 -2.968894,10.723539 -4.578033,10.723539l-5.076803,0l-1.857042,-3.714081c-0.614566,-1.7279 8.870947,-8.069417 8.006996,-9.42324c-0.711038,-1.131127 -12.270308,1.603208 -12.482576,0.596773l-1.095544,-2.315777z" stroke-opacity="null" stroke-width="1.5" fill="#ffffff"/>
  <path stroke="null" transform="rotate(16.296113967895508 989.7193603515619,496.0391845703125) " id="svg_50" d="m972.387003,496.161796l1.857041,-3.714082c0.619014,-1.238027 11.213414,3.135101 11.832428,1.897074c0.619014,-1.238028 -8.737358,-8.087209 -8.118345,-9.325236l1.857042,-3.838774c2.357293,-0.290949 3.218279,0.041564 4.827418,0c1.650704,0 3.176715,11.347001 4.827418,11.347001c1.692268,-0.20782 3.509228,-8.520642 5.201495,-11.222309l4.952111,0l1.857041,3.714081c0.619014,1.238028 -9.610205,8.087209 -8.991191,9.325237c0.619013,1.238027 12.086259,-3.135101 12.705273,-1.897074l1.857041,3.714082l-1.857041,3.714081c-0.619014,1.238027 -11.836875,-3.1351 -12.455888,-1.897073c-0.619014,1.238027 9.36082,8.087209 8.741806,9.325236l-1.857041,3.714081l-4.952111,0c-1.650703,0 -3.550791,-10.723539 -5.201495,-10.723539c-1.609139,0 -2.968894,10.723539 -4.578033,10.723539l-5.076803,0l-1.857042,-3.714081c-0.614566,-1.7279 8.870947,-8.069417 8.006996,-9.42324c-0.711038,-1.131127 -12.270308,1.603208 -12.482576,0.596773l-1.095544,-2.315777z" stroke-opacity="null" stroke-width="1.5" fill="#ffffff"/>
  <path stroke="null" transform="rotate(16.296113967895508 805.7193603515611,934.705810546875) " id="svg_51" d="m788.387003,934.828452l1.857041,-3.714082c0.619014,-1.238027 11.213414,3.135101 11.832428,1.897074c0.619014,-1.238028 -8.737358,-8.087209 -8.118345,-9.325236l1.857042,-3.838774c2.357293,-0.290949 3.218279,0.041564 4.827418,0c1.650704,0 3.176715,11.347001 4.827418,11.347001c1.692268,-0.20782 3.509228,-8.520642 5.201495,-11.222309l4.952111,0l1.857041,3.714081c0.619014,1.238028 -9.610205,8.087209 -8.991191,9.325237c0.619013,1.238027 12.086259,-3.135101 12.705273,-1.897074l1.857041,3.714082l-1.857041,3.714081c-0.619014,1.238027 -11.836875,-3.1351 -12.455888,-1.897073c-0.619014,1.238027 9.36082,8.087209 8.741806,9.325236l-1.857041,3.714081l-4.952111,0c-1.650703,0 -3.550791,-10.723539 -5.201495,-10.723539c-1.609139,0 -2.968894,10.723539 -4.578033,10.723539l-5.076803,0l-1.857042,-3.714081c-0.614566,-1.7279 8.870947,-8.069417 8.006996,-9.42324c-0.711038,-1.131127 -12.270308,1.603208 -12.482576,0.596773l-1.095544,-2.315777z" stroke-opacity="null" stroke-width="1.5" fill="#ffffff"/>
  <path stroke="null" transform="rotate(16.296113967895508 1223.0527343749993,701.3724975585938) " id="svg_52" d="m1205.720346,701.495124l1.857041,-3.714082c0.619014,-1.238027 11.213414,3.135101 11.832428,1.897074c0.619014,-1.238028 -8.737358,-8.087209 -8.118345,-9.325236l1.857042,-3.838774c2.357293,-0.290949 3.218279,0.041564 4.827418,0c1.650704,0 3.176715,11.347001 4.827418,11.347001c1.692268,-0.20782 3.509228,-8.520642 5.201495,-11.222309l4.952111,0l1.857041,3.714081c0.619014,1.238028 -9.610205,8.087209 -8.991191,9.325237c0.619013,1.238027 12.086259,-3.135101 12.705273,-1.897074l1.857041,3.714082l-1.857041,3.714081c-0.619014,1.238027 -11.836875,-3.1351 -12.455888,-1.897073c-0.619014,1.238027 9.36082,8.087209 8.741806,9.325236l-1.857041,3.714081l-4.952111,0c-1.650703,0 -3.550791,-10.723539 -5.201495,-10.723539c-1.609139,0 -2.968894,10.723539 -4.578033,10.723539l-5.076803,0l-1.857042,-3.714081c-0.614566,-1.7279 8.870947,-8.069417 8.006996,-9.42324c-0.711038,-1.131127 -12.270308,1.603208 -12.482576,0.596773l-1.095544,-2.315777z" stroke-opacity="null" stroke-width="1.5" fill="#ffffff"/>
  <path stroke="null" transform="rotate(16.296113967895508 441.71939086914,928.0391845703124) " id="svg_53" d="m424.387003,928.161796l1.857041,-3.714082c0.619014,-1.238027 11.213414,3.135101 11.832428,1.897074c0.619014,-1.238028 -8.737358,-8.087209 -8.118345,-9.325236l1.857042,-3.838774c2.357293,-0.290949 3.218279,0.041564 4.827418,0c1.650704,0 3.176715,11.347001 4.827418,11.347001c1.692268,-0.20782 3.509228,-8.520642 5.201495,-11.222309l4.952111,0l1.857041,3.714081c0.619014,1.238028 -9.610205,8.087209 -8.991191,9.325237c0.619013,1.238027 12.086259,-3.135101 12.705273,-1.897074l1.857041,3.714082l-1.857041,3.714081c-0.619014,1.238027 -11.836875,-3.1351 -12.455888,-1.897073c-0.619014,1.238027 9.36082,8.087209 8.741806,9.325236l-1.857041,3.714081l-4.952111,0c-1.650703,0 -3.550791,-10.723539 -5.201495,-10.723539c-1.609139,0 -2.968894,10.723539 -4.578033,10.723539l-5.076803,0l-1.857042,-3.714081c-0.614566,-1.7279 8.870947,-8.069417 8.006996,-9.42324c-0.711038,-1.131127 -12.270308,1.603208 -12.482576,0.596773l-1.095544,-2.315777z" stroke-opacity="null" stroke-width="1.5" fill="#ffffff"/>
  <path stroke="null" transform="rotate(16.296113967895508 195.05270385742162,498.7058715820312) " id="svg_54" d="m177.720316,498.828462l1.857041,-3.714082c0.619014,-1.238027 11.213414,3.135101 11.832428,1.897074c0.619014,-1.238028 -8.737358,-8.087209 -8.118345,-9.325236l1.857042,-3.838774c2.357293,-0.290949 3.218279,0.041564 4.827418,0c1.650704,0 3.176715,11.347001 4.827418,11.347001c1.692268,-0.20782 3.509228,-8.520642 5.201495,-11.222309l4.952111,0l1.857041,3.714081c0.619014,1.238028 -9.610205,8.087209 -8.991191,9.325237c0.619013,1.238027 12.086259,-3.135101 12.705273,-1.897074l1.857041,3.714082l-1.857041,3.714081c-0.619014,1.238027 -11.836875,-3.1351 -12.455888,-1.897073c-0.619014,1.238027 9.36082,8.087209 8.741806,9.325236l-1.857041,3.714081l-4.952111,0c-1.650703,0 -3.550791,-10.723539 -5.201495,-10.723539c-1.609139,0 -2.968894,10.723539 -4.578033,10.723539l-5.076803,0l-1.857042,-3.714081c-0.614566,-1.7279 8.870947,-8.069417 8.006996,-9.42324c-0.711038,-1.131127 -12.270308,1.603208 -12.482576,0.596773l-1.095544,-2.315777z" stroke-opacity="null" stroke-width="1.5" fill="#ffffff"/>
  <path stroke="null" transform="rotate(16.296113967895508 111.05270385742001,922.7058105468751) " id="svg_55" d="m93.720316,922.828452l1.857041,-3.714082c0.619014,-1.238027 11.213414,3.135101 11.832428,1.897074c0.619014,-1.238028 -8.737358,-8.087209 -8.118345,-9.325236l1.857042,-3.838774c2.357293,-0.290949 3.218279,0.041564 4.827418,0c1.650704,0 3.176715,11.347001 4.827418,11.347001c1.692268,-0.20782 3.509228,-8.520642 5.201495,-11.222309l4.952111,0l1.857041,3.714081c0.619014,1.238028 -9.610205,8.087209 -8.991191,9.325237c0.619013,1.238027 12.086259,-3.135101 12.705273,-1.897074l1.857041,3.714082l-1.857041,3.714081c-0.619014,1.238027 -11.836875,-3.1351 -12.455888,-1.897073c-0.619014,1.238027 9.36082,8.087209 8.741806,9.325236l-1.857041,3.714081l-4.952111,0c-1.650703,0 -3.550791,-10.723539 -5.201495,-10.723539c-1.609139,0 -2.968894,10.723539 -4.578033,10.723539l-5.076803,0l-1.857042,-3.714081c-0.614566,-1.7279 8.870947,-8.069417 8.006996,-9.42324c-0.711038,-1.131127 -12.270308,1.603208 -12.482576,0.596773l-1.095544,-2.315777z" stroke-opacity="null" stroke-width="1.5" fill="#ffffff"/>
  <path stroke="null" transform="rotate(16.296113967895508 1284.3861083984368,970.7058105468752) " id="svg_56" d="m1267.05369,970.828452l1.857041,-3.714082c0.619014,-1.238027 11.213414,3.135101 11.832428,1.897074c0.619014,-1.238028 -8.737358,-8.087209 -8.118345,-9.325236l1.857042,-3.838774c2.357293,-0.290949 3.218279,0.041564 4.827418,0c1.650704,0 3.176715,11.347001 4.827418,11.347001c1.692268,-0.20782 3.509228,-8.520642 5.201495,-11.222309l4.952111,0l1.857041,3.714081c0.619014,1.238028 -9.610205,8.087209 -8.991191,9.325237c0.619013,1.238027 12.086259,-3.135101 12.705273,-1.897074l1.857041,3.714082l-1.857041,3.714081c-0.619014,1.238027 -11.836875,-3.1351 -12.455888,-1.897073c-0.619014,1.238027 9.36082,8.087209 8.741806,9.325236l-1.857041,3.714081l-4.952111,0c-1.650703,0 -3.550791,-10.723539 -5.201495,-10.723539c-1.609139,0 -2.968894,10.723539 -4.578033,10.723539l-5.076803,0l-1.857042,-3.714081c-0.614566,-1.7279 8.870947,-8.069417 8.006996,-9.42324c-0.711038,-1.131127 -12.270308,1.603208 -12.482576,0.596773l-1.095544,-2.315777z" stroke-opacity="null" stroke-width="1.5" fill="#ffffff"/>
  <path stroke="null" transform="rotate(16.296113967895508 1528.3861083984366,517.3724975585943) " id="svg_57" d="m1511.05369,517.495129l1.857041,-3.714082c0.619014,-1.238027 11.213414,3.135101 11.832428,1.897074c0.619014,-1.238028 -8.737358,-8.087209 -8.118345,-9.325236l1.857042,-3.838774c2.357293,-0.290949 3.218279,0.041564 4.827418,0c1.650704,0 3.176715,11.347001 4.827418,11.347001c1.692268,-0.20782 3.509228,-8.520642 5.201495,-11.222309l4.952111,0l1.857041,3.714081c0.619014,1.238028 -9.610205,8.087209 -8.991191,9.325237c0.619013,1.238027 12.086259,-3.135101 12.705273,-1.897074l1.857041,3.714082l-1.857041,3.714081c-0.619014,1.238027 -11.836875,-3.1351 -12.455888,-1.897073c-0.619014,1.238027 9.36082,8.087209 8.741806,9.325236l-1.857041,3.714081l-4.952111,0c-1.650703,0 -3.550791,-10.723539 -5.201495,-10.723539c-1.609139,0 -2.968894,10.723539 -4.578033,10.723539l-5.076803,0l-1.857042,-3.714081c-0.614566,-1.7279 8.870947,-8.069417 8.006996,-9.42324c-0.711038,-1.131127 -12.270308,1.603208 -12.482576,0.596773l-1.095544,-2.315777z" stroke-opacity="null" stroke-width="1.5" fill="#ffffff"/>
  <path stroke="null" transform="rotate(16.296113967895508 1535.052734374998,785.372497558594) " id="svg_58" d="m1517.720316,785.49514l1.857041,-3.714082c0.619014,-1.238027 11.213414,3.135101 11.832428,1.897074c0.619014,-1.238028 -8.737358,-8.087209 -8.118345,-9.325236l1.857042,-3.838774c2.357293,-0.290949 3.218279,0.041564 4.827418,0c1.650704,0 3.176715,11.347001 4.827418,11.347001c1.692268,-0.20782 3.509228,-8.520642 5.201495,-11.222309l4.952111,0l1.857041,3.714081c0.619014,1.238028 -9.610205,8.087209 -8.991191,9.325237c0.619013,1.238027 12.086259,-3.135101 12.705273,-1.897074l1.857041,3.714082l-1.857041,3.714081c-0.619014,1.238027 -11.836875,-3.1351 -12.455888,-1.897073c-0.619014,1.238027 9.36082,8.087209 8.741806,9.325236l-1.857041,3.714081l-4.952111,0c-1.650703,0 -3.550791,-10.723539 -5.201495,-10.723539c-1.609139,0 -2.968894,10.723539 -4.578033,10.723539l-5.076803,0l-1.857042,-3.714081c-0.614566,-1.7279 8.870947,-8.069417 8.006996,-9.42324c-0.711038,-1.131127 -12.270308,1.603208 -12.482576,0.596773l-1.095544,-2.315777z" stroke-opacity="null" stroke-width="1.5" fill="#ffffff"/>
  <path stroke="null" transform="rotate(16.296113967895508 1769.7193603515616,958.7058105468749) " id="svg_59" d="m1752.387003,958.828452l1.857041,-3.714082c0.619014,-1.238027 11.213414,3.135101 11.832428,1.897074c0.619014,-1.238028 -8.737358,-8.087209 -8.118345,-9.325236l1.857042,-3.838774c2.357293,-0.290949 3.218279,0.041564 4.827418,0c1.650704,0 3.176715,11.347001 4.827418,11.347001c1.692268,-0.20782 3.509228,-8.520642 5.201495,-11.222309l4.952111,0l1.857041,3.714081c0.619014,1.238028 -9.610205,8.087209 -8.991191,9.325237c0.619013,1.238027 12.086259,-3.135101 12.705273,-1.897074l1.857041,3.714082l-1.857041,3.714081c-0.619014,1.238027 -11.836875,-3.1351 -12.455888,-1.897073c-0.619014,1.238027 9.36082,8.087209 8.741806,9.325236l-1.857041,3.714081l-4.952111,0c-1.650703,0 -3.550791,-10.723539 -5.201495,-10.723539c-1.609139,0 -2.968894,10.723539 -4.578033,10.723539l-5.076803,0l-1.857042,-3.714081c-0.614566,-1.7279 8.870947,-8.069417 8.006996,-9.42324c-0.711038,-1.131127 -12.270308,1.603208 -12.482576,0.596773l-1.095544,-2.315777z" stroke-opacity="null" stroke-width="1.5" fill="#ffffff"/>
  <path stroke="null" transform="rotate(16.296113967895508 1804.3859863281239,553.3724975585935) " id="svg_60" d="m1787.053629,553.49513l1.857041,-3.714082c0.619014,-1.238027 11.213414,3.135101 11.832428,1.897074c0.619014,-1.238028 -8.737358,-8.087209 -8.118345,-9.325236l1.857042,-3.838774c2.357293,-0.290949 3.218279,0.041564 4.827418,0c1.650704,0 3.176715,11.347001 4.827418,11.347001c1.692268,-0.20782 3.509228,-8.520642 5.201495,-11.222309l4.952111,0l1.857041,3.714081c0.619014,1.238028 -9.610205,8.087209 -8.991191,9.325237c0.619013,1.238027 12.086259,-3.135101 12.705273,-1.897074l1.857041,3.714082l-1.857041,3.714081c-0.619014,1.238027 -11.836875,-3.1351 -12.455888,-1.897073c-0.619014,1.238027 9.36082,8.087209 8.741806,9.325236l-1.857041,3.714081l-4.952111,0c-1.650703,0 -3.550791,-10.723539 -5.201495,-10.723539c-1.609139,0 -2.968894,10.723539 -4.578033,10.723539l-5.076803,0l-1.857042,-3.714081c-0.614566,-1.7279 8.870947,-8.069417 8.006996,-9.42324c-0.711038,-1.131127 -12.270308,1.603208 -12.482576,0.596773l-1.095544,-2.315777z" stroke-opacity="null" stroke-width="1.5" fill="#ffffff"/>
  <path stroke="null" transform="rotate(16.296113967895508 1284.385986328125,482.7058410644527) " id="svg_61" d="m1267.053629,482.828466l1.857041,-3.714082c0.619014,-1.238027 11.213414,3.135101 11.832428,1.897074c0.619014,-1.238028 -8.737358,-8.087209 -8.118345,-9.325236l1.857042,-3.838774c2.357293,-0.290949 3.218279,0.041564 4.827418,0c1.650704,0 3.176715,11.347001 4.827418,11.347001c1.692268,-0.20782 3.509228,-8.520642 5.201495,-11.222309l4.952111,0l1.857041,3.714081c0.619014,1.238028 -9.610205,8.087209 -8.991191,9.325237c0.619013,1.238027 12.086259,-3.135101 12.705273,-1.897074l1.857041,3.714082l-1.857041,3.714081c-0.619014,1.238027 -11.836875,-3.1351 -12.455888,-1.897073c-0.619014,1.238027 9.36082,8.087209 8.741806,9.325236l-1.857041,3.714081l-4.952111,0c-1.650703,0 -3.550791,-10.723539 -5.201495,-10.723539c-1.609139,0 -2.968894,10.723539 -4.578033,10.723539l-5.076803,0l-1.857042,-3.714081c-0.614566,-1.7279 8.870947,-8.069417 8.006996,-9.42324c-0.711038,-1.131127 -12.270308,1.603208 -12.482576,0.596773l-1.095544,-2.315777z" stroke-opacity="null" stroke-width="1.5" fill="#ffffff"/>
 </g>
</svg>